%
M48
M72
T01C0.01300
T02C0.01575
T03C0.02362
T04C0.03200
T05C0.03543
T06C0.04000
T07C0.06299
T08C0.09843
T09C0.12800
T10C0.15748
%
T01
X61867Y88038
X88367Y91038
X88367Y111538
X107367Y126038
X141367Y101538
X144367Y104538
X162867Y126038
X165867Y129038
X173367Y126038
X177367Y125538
X186867Y131038
X181367Y135038
X179367Y142038
X169867Y137538
X194867Y164038
X200867Y175038
X210367Y169538
X230867Y170538
X235867Y172038
X241867Y175038
X238867Y178038
X241867Y181038
X232367Y178038
X232367Y191538
X224867Y194538
X224867Y200538
X216867Y209538
X207367Y211538
X213867Y219538
X198867Y232538
X211367Y248038
X166367Y254038
X156367Y279038
X86867Y277038
X89867Y209538
X86367Y204538
X171867Y167038
X189367Y196538
X201867Y196538
X232367Y159538
X213367Y140038
X216367Y137038
X208367Y135538
X203867Y124038
X221367Y117038
X261867Y143538
X261867Y179038
T02
X78367Y83538
X83867Y102038
X83867Y112038
X137367Y83538
X150367Y73538
X154867Y74038
X218867Y83538
X244867Y92038
X282367Y63538
X290867Y83538
X184867Y249538
X181367Y242538
X193867Y223038
X189367Y211538
X180867Y201538
X176867Y194538
X164867Y215038
X152367Y212038
X149367Y209038
X137867Y212038
X137867Y229038
X151867Y254538
X118367Y197538
X176367Y149538
X179867Y146538
X236367Y167038
X248867Y177538
X266367Y176038
X266367Y186538
X273367Y202038
T03
X287867Y172038
T04
X299867Y182038
X299867Y192038
X299867Y217038
X299867Y227038
T05
X357367Y57038
X347367Y57038
X337367Y57038
X327367Y57038
X332367Y67038
X342367Y67038
X352367Y67038
X362367Y67038
X282367Y57038
X272367Y57038
X262367Y57038
X252367Y57038
X257367Y67038
X267367Y67038
X277367Y67038
X287367Y67038
X207367Y57038
X197367Y57038
X187367Y57038
X177367Y57038
X182367Y67038
X192367Y67038
X202367Y67038
X212367Y67038
X132367Y57038
X122367Y57038
X112367Y57038
X102367Y57038
X107367Y67038
X117367Y67038
X127367Y67038
X137367Y67038
X57367Y57038
X47367Y57038
X37367Y57038
X27367Y57038
X32367Y67038
X42367Y67038
X52367Y67038
X62367Y67038
X27367Y262038
X37367Y262038
X47367Y262038
X57367Y262038
X62367Y272038
X52367Y272038
X42367Y272038
X32367Y272038
X107367Y272038
X117367Y272038
X127367Y272038
X137367Y272038
X132367Y262038
X122367Y262038
X112367Y262038
X102367Y262038
X182367Y272038
X192367Y272038
X202367Y272038
X212367Y272038
X207367Y262038
X197367Y262038
X187367Y262038
X177367Y262038
X354867Y174538
X354867Y164538
X344867Y169538
X344867Y179538
X344867Y159538
X344867Y149538
X354867Y154538
X354867Y144538
T06
X14367Y77038
X15367Y87038
X24367Y87038
X25367Y97038
X24367Y107038
X15367Y107038
X14367Y117038
X15367Y127038
X24367Y127038
X25367Y137038
X24367Y147038
X15367Y147038
X14367Y157038
X15367Y167038
X24367Y167038
X25367Y177038
X24367Y187038
X15367Y187038
X14367Y197038
X15367Y207038
X24367Y207038
X25367Y217038
X14367Y217038
X15367Y227038
X14867Y237038
X14867Y247038
X239867Y302038
X239867Y292038
X239867Y282038
X254867Y282038
X254867Y292038
X254867Y302038
X269867Y302038
X269867Y292038
X269867Y282038
X284867Y282038
X284867Y292038
X284867Y302038
X299867Y302038
X299867Y292038
X299867Y282038
X314867Y282038
X314867Y292038
X314867Y302038
X371367Y121038
X371367Y111038
X371367Y101038
X314867Y102038
X314867Y112038
X314867Y122038
X314867Y132038
X314867Y142038
X314867Y92038
X199867Y102038
X189867Y102038
X189867Y112038
X199867Y112038
X179867Y112038
X169867Y112038
X169867Y102038
X179867Y102038
X159867Y102038
X159867Y112038
X259867Y197038
X269867Y197038
X269867Y207038
X259867Y207038
X259867Y217038
X269867Y217038
X25367Y197038
X14367Y177038
X25367Y157038
X14367Y137038
X25367Y117038
X14367Y97038
T07
X339867Y232038
X339867Y252038
X339867Y272038
X339867Y292038
T08
X349867Y302038
X349867Y222038
T09
X367367Y32038
X322367Y32038
X292367Y32038
X247367Y32038
X217367Y32038
X172367Y32038
X142367Y32038
X97367Y32038
X67367Y32038
X22367Y32038
X22367Y297038
X67367Y297038
X97367Y297038
X142367Y297038
X172367Y297038
X217367Y297038
X379867Y184538
X379867Y139538
T10
X379867Y282038
X379867Y242038
M30
