G75*
%MOIN*%
%OFA0B0*%
%FSLAX25Y25*%
%IPPOS*%
%LPD*%
%AMOC8*
5,1,8,0,0,1.08239X$1,22.5*
%
%ADD10C,0.00000*%
%ADD11OC8,0.06000*%
%ADD12C,0.10236*%
%ADD13C,0.00039*%
%ADD14C,0.05543*%
%ADD15C,0.06000*%
%ADD16OC8,0.06300*%
%ADD17C,0.06300*%
%ADD18C,0.07400*%
%ADD19C,0.02000*%
%ADD20C,0.03175*%
%ADD21C,0.03200*%
%ADD22C,0.05000*%
%ADD23C,0.03962*%
%ADD24C,0.02400*%
%ADD25C,0.01000*%
%ADD26C,0.02900*%
%ADD27C,0.01600*%
D10*
X0004867Y0017038D02*
X0004867Y0311998D01*
X0393567Y0311998D01*
X0393567Y0017038D01*
X0004867Y0017038D01*
X0015967Y0032038D02*
X0015969Y0032198D01*
X0015975Y0032357D01*
X0015985Y0032516D01*
X0015999Y0032675D01*
X0016017Y0032834D01*
X0016038Y0032992D01*
X0016064Y0033149D01*
X0016094Y0033306D01*
X0016127Y0033462D01*
X0016165Y0033617D01*
X0016206Y0033771D01*
X0016251Y0033924D01*
X0016300Y0034076D01*
X0016353Y0034227D01*
X0016409Y0034376D01*
X0016470Y0034524D01*
X0016533Y0034670D01*
X0016601Y0034815D01*
X0016672Y0034958D01*
X0016746Y0035099D01*
X0016824Y0035238D01*
X0016906Y0035375D01*
X0016991Y0035510D01*
X0017079Y0035643D01*
X0017171Y0035774D01*
X0017265Y0035902D01*
X0017363Y0036028D01*
X0017464Y0036152D01*
X0017568Y0036273D01*
X0017675Y0036391D01*
X0017785Y0036507D01*
X0017898Y0036620D01*
X0018014Y0036730D01*
X0018132Y0036837D01*
X0018253Y0036941D01*
X0018377Y0037042D01*
X0018503Y0037140D01*
X0018631Y0037234D01*
X0018762Y0037326D01*
X0018895Y0037414D01*
X0019030Y0037499D01*
X0019167Y0037581D01*
X0019306Y0037659D01*
X0019447Y0037733D01*
X0019590Y0037804D01*
X0019735Y0037872D01*
X0019881Y0037935D01*
X0020029Y0037996D01*
X0020178Y0038052D01*
X0020329Y0038105D01*
X0020481Y0038154D01*
X0020634Y0038199D01*
X0020788Y0038240D01*
X0020943Y0038278D01*
X0021099Y0038311D01*
X0021256Y0038341D01*
X0021413Y0038367D01*
X0021571Y0038388D01*
X0021730Y0038406D01*
X0021889Y0038420D01*
X0022048Y0038430D01*
X0022207Y0038436D01*
X0022367Y0038438D01*
X0022527Y0038436D01*
X0022686Y0038430D01*
X0022845Y0038420D01*
X0023004Y0038406D01*
X0023163Y0038388D01*
X0023321Y0038367D01*
X0023478Y0038341D01*
X0023635Y0038311D01*
X0023791Y0038278D01*
X0023946Y0038240D01*
X0024100Y0038199D01*
X0024253Y0038154D01*
X0024405Y0038105D01*
X0024556Y0038052D01*
X0024705Y0037996D01*
X0024853Y0037935D01*
X0024999Y0037872D01*
X0025144Y0037804D01*
X0025287Y0037733D01*
X0025428Y0037659D01*
X0025567Y0037581D01*
X0025704Y0037499D01*
X0025839Y0037414D01*
X0025972Y0037326D01*
X0026103Y0037234D01*
X0026231Y0037140D01*
X0026357Y0037042D01*
X0026481Y0036941D01*
X0026602Y0036837D01*
X0026720Y0036730D01*
X0026836Y0036620D01*
X0026949Y0036507D01*
X0027059Y0036391D01*
X0027166Y0036273D01*
X0027270Y0036152D01*
X0027371Y0036028D01*
X0027469Y0035902D01*
X0027563Y0035774D01*
X0027655Y0035643D01*
X0027743Y0035510D01*
X0027828Y0035375D01*
X0027910Y0035238D01*
X0027988Y0035099D01*
X0028062Y0034958D01*
X0028133Y0034815D01*
X0028201Y0034670D01*
X0028264Y0034524D01*
X0028325Y0034376D01*
X0028381Y0034227D01*
X0028434Y0034076D01*
X0028483Y0033924D01*
X0028528Y0033771D01*
X0028569Y0033617D01*
X0028607Y0033462D01*
X0028640Y0033306D01*
X0028670Y0033149D01*
X0028696Y0032992D01*
X0028717Y0032834D01*
X0028735Y0032675D01*
X0028749Y0032516D01*
X0028759Y0032357D01*
X0028765Y0032198D01*
X0028767Y0032038D01*
X0028765Y0031878D01*
X0028759Y0031719D01*
X0028749Y0031560D01*
X0028735Y0031401D01*
X0028717Y0031242D01*
X0028696Y0031084D01*
X0028670Y0030927D01*
X0028640Y0030770D01*
X0028607Y0030614D01*
X0028569Y0030459D01*
X0028528Y0030305D01*
X0028483Y0030152D01*
X0028434Y0030000D01*
X0028381Y0029849D01*
X0028325Y0029700D01*
X0028264Y0029552D01*
X0028201Y0029406D01*
X0028133Y0029261D01*
X0028062Y0029118D01*
X0027988Y0028977D01*
X0027910Y0028838D01*
X0027828Y0028701D01*
X0027743Y0028566D01*
X0027655Y0028433D01*
X0027563Y0028302D01*
X0027469Y0028174D01*
X0027371Y0028048D01*
X0027270Y0027924D01*
X0027166Y0027803D01*
X0027059Y0027685D01*
X0026949Y0027569D01*
X0026836Y0027456D01*
X0026720Y0027346D01*
X0026602Y0027239D01*
X0026481Y0027135D01*
X0026357Y0027034D01*
X0026231Y0026936D01*
X0026103Y0026842D01*
X0025972Y0026750D01*
X0025839Y0026662D01*
X0025704Y0026577D01*
X0025567Y0026495D01*
X0025428Y0026417D01*
X0025287Y0026343D01*
X0025144Y0026272D01*
X0024999Y0026204D01*
X0024853Y0026141D01*
X0024705Y0026080D01*
X0024556Y0026024D01*
X0024405Y0025971D01*
X0024253Y0025922D01*
X0024100Y0025877D01*
X0023946Y0025836D01*
X0023791Y0025798D01*
X0023635Y0025765D01*
X0023478Y0025735D01*
X0023321Y0025709D01*
X0023163Y0025688D01*
X0023004Y0025670D01*
X0022845Y0025656D01*
X0022686Y0025646D01*
X0022527Y0025640D01*
X0022367Y0025638D01*
X0022207Y0025640D01*
X0022048Y0025646D01*
X0021889Y0025656D01*
X0021730Y0025670D01*
X0021571Y0025688D01*
X0021413Y0025709D01*
X0021256Y0025735D01*
X0021099Y0025765D01*
X0020943Y0025798D01*
X0020788Y0025836D01*
X0020634Y0025877D01*
X0020481Y0025922D01*
X0020329Y0025971D01*
X0020178Y0026024D01*
X0020029Y0026080D01*
X0019881Y0026141D01*
X0019735Y0026204D01*
X0019590Y0026272D01*
X0019447Y0026343D01*
X0019306Y0026417D01*
X0019167Y0026495D01*
X0019030Y0026577D01*
X0018895Y0026662D01*
X0018762Y0026750D01*
X0018631Y0026842D01*
X0018503Y0026936D01*
X0018377Y0027034D01*
X0018253Y0027135D01*
X0018132Y0027239D01*
X0018014Y0027346D01*
X0017898Y0027456D01*
X0017785Y0027569D01*
X0017675Y0027685D01*
X0017568Y0027803D01*
X0017464Y0027924D01*
X0017363Y0028048D01*
X0017265Y0028174D01*
X0017171Y0028302D01*
X0017079Y0028433D01*
X0016991Y0028566D01*
X0016906Y0028701D01*
X0016824Y0028838D01*
X0016746Y0028977D01*
X0016672Y0029118D01*
X0016601Y0029261D01*
X0016533Y0029406D01*
X0016470Y0029552D01*
X0016409Y0029700D01*
X0016353Y0029849D01*
X0016300Y0030000D01*
X0016251Y0030152D01*
X0016206Y0030305D01*
X0016165Y0030459D01*
X0016127Y0030614D01*
X0016094Y0030770D01*
X0016064Y0030927D01*
X0016038Y0031084D01*
X0016017Y0031242D01*
X0015999Y0031401D01*
X0015985Y0031560D01*
X0015975Y0031719D01*
X0015969Y0031878D01*
X0015967Y0032038D01*
X0060967Y0032038D02*
X0060969Y0032198D01*
X0060975Y0032357D01*
X0060985Y0032516D01*
X0060999Y0032675D01*
X0061017Y0032834D01*
X0061038Y0032992D01*
X0061064Y0033149D01*
X0061094Y0033306D01*
X0061127Y0033462D01*
X0061165Y0033617D01*
X0061206Y0033771D01*
X0061251Y0033924D01*
X0061300Y0034076D01*
X0061353Y0034227D01*
X0061409Y0034376D01*
X0061470Y0034524D01*
X0061533Y0034670D01*
X0061601Y0034815D01*
X0061672Y0034958D01*
X0061746Y0035099D01*
X0061824Y0035238D01*
X0061906Y0035375D01*
X0061991Y0035510D01*
X0062079Y0035643D01*
X0062171Y0035774D01*
X0062265Y0035902D01*
X0062363Y0036028D01*
X0062464Y0036152D01*
X0062568Y0036273D01*
X0062675Y0036391D01*
X0062785Y0036507D01*
X0062898Y0036620D01*
X0063014Y0036730D01*
X0063132Y0036837D01*
X0063253Y0036941D01*
X0063377Y0037042D01*
X0063503Y0037140D01*
X0063631Y0037234D01*
X0063762Y0037326D01*
X0063895Y0037414D01*
X0064030Y0037499D01*
X0064167Y0037581D01*
X0064306Y0037659D01*
X0064447Y0037733D01*
X0064590Y0037804D01*
X0064735Y0037872D01*
X0064881Y0037935D01*
X0065029Y0037996D01*
X0065178Y0038052D01*
X0065329Y0038105D01*
X0065481Y0038154D01*
X0065634Y0038199D01*
X0065788Y0038240D01*
X0065943Y0038278D01*
X0066099Y0038311D01*
X0066256Y0038341D01*
X0066413Y0038367D01*
X0066571Y0038388D01*
X0066730Y0038406D01*
X0066889Y0038420D01*
X0067048Y0038430D01*
X0067207Y0038436D01*
X0067367Y0038438D01*
X0067527Y0038436D01*
X0067686Y0038430D01*
X0067845Y0038420D01*
X0068004Y0038406D01*
X0068163Y0038388D01*
X0068321Y0038367D01*
X0068478Y0038341D01*
X0068635Y0038311D01*
X0068791Y0038278D01*
X0068946Y0038240D01*
X0069100Y0038199D01*
X0069253Y0038154D01*
X0069405Y0038105D01*
X0069556Y0038052D01*
X0069705Y0037996D01*
X0069853Y0037935D01*
X0069999Y0037872D01*
X0070144Y0037804D01*
X0070287Y0037733D01*
X0070428Y0037659D01*
X0070567Y0037581D01*
X0070704Y0037499D01*
X0070839Y0037414D01*
X0070972Y0037326D01*
X0071103Y0037234D01*
X0071231Y0037140D01*
X0071357Y0037042D01*
X0071481Y0036941D01*
X0071602Y0036837D01*
X0071720Y0036730D01*
X0071836Y0036620D01*
X0071949Y0036507D01*
X0072059Y0036391D01*
X0072166Y0036273D01*
X0072270Y0036152D01*
X0072371Y0036028D01*
X0072469Y0035902D01*
X0072563Y0035774D01*
X0072655Y0035643D01*
X0072743Y0035510D01*
X0072828Y0035375D01*
X0072910Y0035238D01*
X0072988Y0035099D01*
X0073062Y0034958D01*
X0073133Y0034815D01*
X0073201Y0034670D01*
X0073264Y0034524D01*
X0073325Y0034376D01*
X0073381Y0034227D01*
X0073434Y0034076D01*
X0073483Y0033924D01*
X0073528Y0033771D01*
X0073569Y0033617D01*
X0073607Y0033462D01*
X0073640Y0033306D01*
X0073670Y0033149D01*
X0073696Y0032992D01*
X0073717Y0032834D01*
X0073735Y0032675D01*
X0073749Y0032516D01*
X0073759Y0032357D01*
X0073765Y0032198D01*
X0073767Y0032038D01*
X0073765Y0031878D01*
X0073759Y0031719D01*
X0073749Y0031560D01*
X0073735Y0031401D01*
X0073717Y0031242D01*
X0073696Y0031084D01*
X0073670Y0030927D01*
X0073640Y0030770D01*
X0073607Y0030614D01*
X0073569Y0030459D01*
X0073528Y0030305D01*
X0073483Y0030152D01*
X0073434Y0030000D01*
X0073381Y0029849D01*
X0073325Y0029700D01*
X0073264Y0029552D01*
X0073201Y0029406D01*
X0073133Y0029261D01*
X0073062Y0029118D01*
X0072988Y0028977D01*
X0072910Y0028838D01*
X0072828Y0028701D01*
X0072743Y0028566D01*
X0072655Y0028433D01*
X0072563Y0028302D01*
X0072469Y0028174D01*
X0072371Y0028048D01*
X0072270Y0027924D01*
X0072166Y0027803D01*
X0072059Y0027685D01*
X0071949Y0027569D01*
X0071836Y0027456D01*
X0071720Y0027346D01*
X0071602Y0027239D01*
X0071481Y0027135D01*
X0071357Y0027034D01*
X0071231Y0026936D01*
X0071103Y0026842D01*
X0070972Y0026750D01*
X0070839Y0026662D01*
X0070704Y0026577D01*
X0070567Y0026495D01*
X0070428Y0026417D01*
X0070287Y0026343D01*
X0070144Y0026272D01*
X0069999Y0026204D01*
X0069853Y0026141D01*
X0069705Y0026080D01*
X0069556Y0026024D01*
X0069405Y0025971D01*
X0069253Y0025922D01*
X0069100Y0025877D01*
X0068946Y0025836D01*
X0068791Y0025798D01*
X0068635Y0025765D01*
X0068478Y0025735D01*
X0068321Y0025709D01*
X0068163Y0025688D01*
X0068004Y0025670D01*
X0067845Y0025656D01*
X0067686Y0025646D01*
X0067527Y0025640D01*
X0067367Y0025638D01*
X0067207Y0025640D01*
X0067048Y0025646D01*
X0066889Y0025656D01*
X0066730Y0025670D01*
X0066571Y0025688D01*
X0066413Y0025709D01*
X0066256Y0025735D01*
X0066099Y0025765D01*
X0065943Y0025798D01*
X0065788Y0025836D01*
X0065634Y0025877D01*
X0065481Y0025922D01*
X0065329Y0025971D01*
X0065178Y0026024D01*
X0065029Y0026080D01*
X0064881Y0026141D01*
X0064735Y0026204D01*
X0064590Y0026272D01*
X0064447Y0026343D01*
X0064306Y0026417D01*
X0064167Y0026495D01*
X0064030Y0026577D01*
X0063895Y0026662D01*
X0063762Y0026750D01*
X0063631Y0026842D01*
X0063503Y0026936D01*
X0063377Y0027034D01*
X0063253Y0027135D01*
X0063132Y0027239D01*
X0063014Y0027346D01*
X0062898Y0027456D01*
X0062785Y0027569D01*
X0062675Y0027685D01*
X0062568Y0027803D01*
X0062464Y0027924D01*
X0062363Y0028048D01*
X0062265Y0028174D01*
X0062171Y0028302D01*
X0062079Y0028433D01*
X0061991Y0028566D01*
X0061906Y0028701D01*
X0061824Y0028838D01*
X0061746Y0028977D01*
X0061672Y0029118D01*
X0061601Y0029261D01*
X0061533Y0029406D01*
X0061470Y0029552D01*
X0061409Y0029700D01*
X0061353Y0029849D01*
X0061300Y0030000D01*
X0061251Y0030152D01*
X0061206Y0030305D01*
X0061165Y0030459D01*
X0061127Y0030614D01*
X0061094Y0030770D01*
X0061064Y0030927D01*
X0061038Y0031084D01*
X0061017Y0031242D01*
X0060999Y0031401D01*
X0060985Y0031560D01*
X0060975Y0031719D01*
X0060969Y0031878D01*
X0060967Y0032038D01*
X0090967Y0032038D02*
X0090969Y0032198D01*
X0090975Y0032357D01*
X0090985Y0032516D01*
X0090999Y0032675D01*
X0091017Y0032834D01*
X0091038Y0032992D01*
X0091064Y0033149D01*
X0091094Y0033306D01*
X0091127Y0033462D01*
X0091165Y0033617D01*
X0091206Y0033771D01*
X0091251Y0033924D01*
X0091300Y0034076D01*
X0091353Y0034227D01*
X0091409Y0034376D01*
X0091470Y0034524D01*
X0091533Y0034670D01*
X0091601Y0034815D01*
X0091672Y0034958D01*
X0091746Y0035099D01*
X0091824Y0035238D01*
X0091906Y0035375D01*
X0091991Y0035510D01*
X0092079Y0035643D01*
X0092171Y0035774D01*
X0092265Y0035902D01*
X0092363Y0036028D01*
X0092464Y0036152D01*
X0092568Y0036273D01*
X0092675Y0036391D01*
X0092785Y0036507D01*
X0092898Y0036620D01*
X0093014Y0036730D01*
X0093132Y0036837D01*
X0093253Y0036941D01*
X0093377Y0037042D01*
X0093503Y0037140D01*
X0093631Y0037234D01*
X0093762Y0037326D01*
X0093895Y0037414D01*
X0094030Y0037499D01*
X0094167Y0037581D01*
X0094306Y0037659D01*
X0094447Y0037733D01*
X0094590Y0037804D01*
X0094735Y0037872D01*
X0094881Y0037935D01*
X0095029Y0037996D01*
X0095178Y0038052D01*
X0095329Y0038105D01*
X0095481Y0038154D01*
X0095634Y0038199D01*
X0095788Y0038240D01*
X0095943Y0038278D01*
X0096099Y0038311D01*
X0096256Y0038341D01*
X0096413Y0038367D01*
X0096571Y0038388D01*
X0096730Y0038406D01*
X0096889Y0038420D01*
X0097048Y0038430D01*
X0097207Y0038436D01*
X0097367Y0038438D01*
X0097527Y0038436D01*
X0097686Y0038430D01*
X0097845Y0038420D01*
X0098004Y0038406D01*
X0098163Y0038388D01*
X0098321Y0038367D01*
X0098478Y0038341D01*
X0098635Y0038311D01*
X0098791Y0038278D01*
X0098946Y0038240D01*
X0099100Y0038199D01*
X0099253Y0038154D01*
X0099405Y0038105D01*
X0099556Y0038052D01*
X0099705Y0037996D01*
X0099853Y0037935D01*
X0099999Y0037872D01*
X0100144Y0037804D01*
X0100287Y0037733D01*
X0100428Y0037659D01*
X0100567Y0037581D01*
X0100704Y0037499D01*
X0100839Y0037414D01*
X0100972Y0037326D01*
X0101103Y0037234D01*
X0101231Y0037140D01*
X0101357Y0037042D01*
X0101481Y0036941D01*
X0101602Y0036837D01*
X0101720Y0036730D01*
X0101836Y0036620D01*
X0101949Y0036507D01*
X0102059Y0036391D01*
X0102166Y0036273D01*
X0102270Y0036152D01*
X0102371Y0036028D01*
X0102469Y0035902D01*
X0102563Y0035774D01*
X0102655Y0035643D01*
X0102743Y0035510D01*
X0102828Y0035375D01*
X0102910Y0035238D01*
X0102988Y0035099D01*
X0103062Y0034958D01*
X0103133Y0034815D01*
X0103201Y0034670D01*
X0103264Y0034524D01*
X0103325Y0034376D01*
X0103381Y0034227D01*
X0103434Y0034076D01*
X0103483Y0033924D01*
X0103528Y0033771D01*
X0103569Y0033617D01*
X0103607Y0033462D01*
X0103640Y0033306D01*
X0103670Y0033149D01*
X0103696Y0032992D01*
X0103717Y0032834D01*
X0103735Y0032675D01*
X0103749Y0032516D01*
X0103759Y0032357D01*
X0103765Y0032198D01*
X0103767Y0032038D01*
X0103765Y0031878D01*
X0103759Y0031719D01*
X0103749Y0031560D01*
X0103735Y0031401D01*
X0103717Y0031242D01*
X0103696Y0031084D01*
X0103670Y0030927D01*
X0103640Y0030770D01*
X0103607Y0030614D01*
X0103569Y0030459D01*
X0103528Y0030305D01*
X0103483Y0030152D01*
X0103434Y0030000D01*
X0103381Y0029849D01*
X0103325Y0029700D01*
X0103264Y0029552D01*
X0103201Y0029406D01*
X0103133Y0029261D01*
X0103062Y0029118D01*
X0102988Y0028977D01*
X0102910Y0028838D01*
X0102828Y0028701D01*
X0102743Y0028566D01*
X0102655Y0028433D01*
X0102563Y0028302D01*
X0102469Y0028174D01*
X0102371Y0028048D01*
X0102270Y0027924D01*
X0102166Y0027803D01*
X0102059Y0027685D01*
X0101949Y0027569D01*
X0101836Y0027456D01*
X0101720Y0027346D01*
X0101602Y0027239D01*
X0101481Y0027135D01*
X0101357Y0027034D01*
X0101231Y0026936D01*
X0101103Y0026842D01*
X0100972Y0026750D01*
X0100839Y0026662D01*
X0100704Y0026577D01*
X0100567Y0026495D01*
X0100428Y0026417D01*
X0100287Y0026343D01*
X0100144Y0026272D01*
X0099999Y0026204D01*
X0099853Y0026141D01*
X0099705Y0026080D01*
X0099556Y0026024D01*
X0099405Y0025971D01*
X0099253Y0025922D01*
X0099100Y0025877D01*
X0098946Y0025836D01*
X0098791Y0025798D01*
X0098635Y0025765D01*
X0098478Y0025735D01*
X0098321Y0025709D01*
X0098163Y0025688D01*
X0098004Y0025670D01*
X0097845Y0025656D01*
X0097686Y0025646D01*
X0097527Y0025640D01*
X0097367Y0025638D01*
X0097207Y0025640D01*
X0097048Y0025646D01*
X0096889Y0025656D01*
X0096730Y0025670D01*
X0096571Y0025688D01*
X0096413Y0025709D01*
X0096256Y0025735D01*
X0096099Y0025765D01*
X0095943Y0025798D01*
X0095788Y0025836D01*
X0095634Y0025877D01*
X0095481Y0025922D01*
X0095329Y0025971D01*
X0095178Y0026024D01*
X0095029Y0026080D01*
X0094881Y0026141D01*
X0094735Y0026204D01*
X0094590Y0026272D01*
X0094447Y0026343D01*
X0094306Y0026417D01*
X0094167Y0026495D01*
X0094030Y0026577D01*
X0093895Y0026662D01*
X0093762Y0026750D01*
X0093631Y0026842D01*
X0093503Y0026936D01*
X0093377Y0027034D01*
X0093253Y0027135D01*
X0093132Y0027239D01*
X0093014Y0027346D01*
X0092898Y0027456D01*
X0092785Y0027569D01*
X0092675Y0027685D01*
X0092568Y0027803D01*
X0092464Y0027924D01*
X0092363Y0028048D01*
X0092265Y0028174D01*
X0092171Y0028302D01*
X0092079Y0028433D01*
X0091991Y0028566D01*
X0091906Y0028701D01*
X0091824Y0028838D01*
X0091746Y0028977D01*
X0091672Y0029118D01*
X0091601Y0029261D01*
X0091533Y0029406D01*
X0091470Y0029552D01*
X0091409Y0029700D01*
X0091353Y0029849D01*
X0091300Y0030000D01*
X0091251Y0030152D01*
X0091206Y0030305D01*
X0091165Y0030459D01*
X0091127Y0030614D01*
X0091094Y0030770D01*
X0091064Y0030927D01*
X0091038Y0031084D01*
X0091017Y0031242D01*
X0090999Y0031401D01*
X0090985Y0031560D01*
X0090975Y0031719D01*
X0090969Y0031878D01*
X0090967Y0032038D01*
X0135967Y0032038D02*
X0135969Y0032198D01*
X0135975Y0032357D01*
X0135985Y0032516D01*
X0135999Y0032675D01*
X0136017Y0032834D01*
X0136038Y0032992D01*
X0136064Y0033149D01*
X0136094Y0033306D01*
X0136127Y0033462D01*
X0136165Y0033617D01*
X0136206Y0033771D01*
X0136251Y0033924D01*
X0136300Y0034076D01*
X0136353Y0034227D01*
X0136409Y0034376D01*
X0136470Y0034524D01*
X0136533Y0034670D01*
X0136601Y0034815D01*
X0136672Y0034958D01*
X0136746Y0035099D01*
X0136824Y0035238D01*
X0136906Y0035375D01*
X0136991Y0035510D01*
X0137079Y0035643D01*
X0137171Y0035774D01*
X0137265Y0035902D01*
X0137363Y0036028D01*
X0137464Y0036152D01*
X0137568Y0036273D01*
X0137675Y0036391D01*
X0137785Y0036507D01*
X0137898Y0036620D01*
X0138014Y0036730D01*
X0138132Y0036837D01*
X0138253Y0036941D01*
X0138377Y0037042D01*
X0138503Y0037140D01*
X0138631Y0037234D01*
X0138762Y0037326D01*
X0138895Y0037414D01*
X0139030Y0037499D01*
X0139167Y0037581D01*
X0139306Y0037659D01*
X0139447Y0037733D01*
X0139590Y0037804D01*
X0139735Y0037872D01*
X0139881Y0037935D01*
X0140029Y0037996D01*
X0140178Y0038052D01*
X0140329Y0038105D01*
X0140481Y0038154D01*
X0140634Y0038199D01*
X0140788Y0038240D01*
X0140943Y0038278D01*
X0141099Y0038311D01*
X0141256Y0038341D01*
X0141413Y0038367D01*
X0141571Y0038388D01*
X0141730Y0038406D01*
X0141889Y0038420D01*
X0142048Y0038430D01*
X0142207Y0038436D01*
X0142367Y0038438D01*
X0142527Y0038436D01*
X0142686Y0038430D01*
X0142845Y0038420D01*
X0143004Y0038406D01*
X0143163Y0038388D01*
X0143321Y0038367D01*
X0143478Y0038341D01*
X0143635Y0038311D01*
X0143791Y0038278D01*
X0143946Y0038240D01*
X0144100Y0038199D01*
X0144253Y0038154D01*
X0144405Y0038105D01*
X0144556Y0038052D01*
X0144705Y0037996D01*
X0144853Y0037935D01*
X0144999Y0037872D01*
X0145144Y0037804D01*
X0145287Y0037733D01*
X0145428Y0037659D01*
X0145567Y0037581D01*
X0145704Y0037499D01*
X0145839Y0037414D01*
X0145972Y0037326D01*
X0146103Y0037234D01*
X0146231Y0037140D01*
X0146357Y0037042D01*
X0146481Y0036941D01*
X0146602Y0036837D01*
X0146720Y0036730D01*
X0146836Y0036620D01*
X0146949Y0036507D01*
X0147059Y0036391D01*
X0147166Y0036273D01*
X0147270Y0036152D01*
X0147371Y0036028D01*
X0147469Y0035902D01*
X0147563Y0035774D01*
X0147655Y0035643D01*
X0147743Y0035510D01*
X0147828Y0035375D01*
X0147910Y0035238D01*
X0147988Y0035099D01*
X0148062Y0034958D01*
X0148133Y0034815D01*
X0148201Y0034670D01*
X0148264Y0034524D01*
X0148325Y0034376D01*
X0148381Y0034227D01*
X0148434Y0034076D01*
X0148483Y0033924D01*
X0148528Y0033771D01*
X0148569Y0033617D01*
X0148607Y0033462D01*
X0148640Y0033306D01*
X0148670Y0033149D01*
X0148696Y0032992D01*
X0148717Y0032834D01*
X0148735Y0032675D01*
X0148749Y0032516D01*
X0148759Y0032357D01*
X0148765Y0032198D01*
X0148767Y0032038D01*
X0148765Y0031878D01*
X0148759Y0031719D01*
X0148749Y0031560D01*
X0148735Y0031401D01*
X0148717Y0031242D01*
X0148696Y0031084D01*
X0148670Y0030927D01*
X0148640Y0030770D01*
X0148607Y0030614D01*
X0148569Y0030459D01*
X0148528Y0030305D01*
X0148483Y0030152D01*
X0148434Y0030000D01*
X0148381Y0029849D01*
X0148325Y0029700D01*
X0148264Y0029552D01*
X0148201Y0029406D01*
X0148133Y0029261D01*
X0148062Y0029118D01*
X0147988Y0028977D01*
X0147910Y0028838D01*
X0147828Y0028701D01*
X0147743Y0028566D01*
X0147655Y0028433D01*
X0147563Y0028302D01*
X0147469Y0028174D01*
X0147371Y0028048D01*
X0147270Y0027924D01*
X0147166Y0027803D01*
X0147059Y0027685D01*
X0146949Y0027569D01*
X0146836Y0027456D01*
X0146720Y0027346D01*
X0146602Y0027239D01*
X0146481Y0027135D01*
X0146357Y0027034D01*
X0146231Y0026936D01*
X0146103Y0026842D01*
X0145972Y0026750D01*
X0145839Y0026662D01*
X0145704Y0026577D01*
X0145567Y0026495D01*
X0145428Y0026417D01*
X0145287Y0026343D01*
X0145144Y0026272D01*
X0144999Y0026204D01*
X0144853Y0026141D01*
X0144705Y0026080D01*
X0144556Y0026024D01*
X0144405Y0025971D01*
X0144253Y0025922D01*
X0144100Y0025877D01*
X0143946Y0025836D01*
X0143791Y0025798D01*
X0143635Y0025765D01*
X0143478Y0025735D01*
X0143321Y0025709D01*
X0143163Y0025688D01*
X0143004Y0025670D01*
X0142845Y0025656D01*
X0142686Y0025646D01*
X0142527Y0025640D01*
X0142367Y0025638D01*
X0142207Y0025640D01*
X0142048Y0025646D01*
X0141889Y0025656D01*
X0141730Y0025670D01*
X0141571Y0025688D01*
X0141413Y0025709D01*
X0141256Y0025735D01*
X0141099Y0025765D01*
X0140943Y0025798D01*
X0140788Y0025836D01*
X0140634Y0025877D01*
X0140481Y0025922D01*
X0140329Y0025971D01*
X0140178Y0026024D01*
X0140029Y0026080D01*
X0139881Y0026141D01*
X0139735Y0026204D01*
X0139590Y0026272D01*
X0139447Y0026343D01*
X0139306Y0026417D01*
X0139167Y0026495D01*
X0139030Y0026577D01*
X0138895Y0026662D01*
X0138762Y0026750D01*
X0138631Y0026842D01*
X0138503Y0026936D01*
X0138377Y0027034D01*
X0138253Y0027135D01*
X0138132Y0027239D01*
X0138014Y0027346D01*
X0137898Y0027456D01*
X0137785Y0027569D01*
X0137675Y0027685D01*
X0137568Y0027803D01*
X0137464Y0027924D01*
X0137363Y0028048D01*
X0137265Y0028174D01*
X0137171Y0028302D01*
X0137079Y0028433D01*
X0136991Y0028566D01*
X0136906Y0028701D01*
X0136824Y0028838D01*
X0136746Y0028977D01*
X0136672Y0029118D01*
X0136601Y0029261D01*
X0136533Y0029406D01*
X0136470Y0029552D01*
X0136409Y0029700D01*
X0136353Y0029849D01*
X0136300Y0030000D01*
X0136251Y0030152D01*
X0136206Y0030305D01*
X0136165Y0030459D01*
X0136127Y0030614D01*
X0136094Y0030770D01*
X0136064Y0030927D01*
X0136038Y0031084D01*
X0136017Y0031242D01*
X0135999Y0031401D01*
X0135985Y0031560D01*
X0135975Y0031719D01*
X0135969Y0031878D01*
X0135967Y0032038D01*
X0165967Y0032038D02*
X0165969Y0032198D01*
X0165975Y0032357D01*
X0165985Y0032516D01*
X0165999Y0032675D01*
X0166017Y0032834D01*
X0166038Y0032992D01*
X0166064Y0033149D01*
X0166094Y0033306D01*
X0166127Y0033462D01*
X0166165Y0033617D01*
X0166206Y0033771D01*
X0166251Y0033924D01*
X0166300Y0034076D01*
X0166353Y0034227D01*
X0166409Y0034376D01*
X0166470Y0034524D01*
X0166533Y0034670D01*
X0166601Y0034815D01*
X0166672Y0034958D01*
X0166746Y0035099D01*
X0166824Y0035238D01*
X0166906Y0035375D01*
X0166991Y0035510D01*
X0167079Y0035643D01*
X0167171Y0035774D01*
X0167265Y0035902D01*
X0167363Y0036028D01*
X0167464Y0036152D01*
X0167568Y0036273D01*
X0167675Y0036391D01*
X0167785Y0036507D01*
X0167898Y0036620D01*
X0168014Y0036730D01*
X0168132Y0036837D01*
X0168253Y0036941D01*
X0168377Y0037042D01*
X0168503Y0037140D01*
X0168631Y0037234D01*
X0168762Y0037326D01*
X0168895Y0037414D01*
X0169030Y0037499D01*
X0169167Y0037581D01*
X0169306Y0037659D01*
X0169447Y0037733D01*
X0169590Y0037804D01*
X0169735Y0037872D01*
X0169881Y0037935D01*
X0170029Y0037996D01*
X0170178Y0038052D01*
X0170329Y0038105D01*
X0170481Y0038154D01*
X0170634Y0038199D01*
X0170788Y0038240D01*
X0170943Y0038278D01*
X0171099Y0038311D01*
X0171256Y0038341D01*
X0171413Y0038367D01*
X0171571Y0038388D01*
X0171730Y0038406D01*
X0171889Y0038420D01*
X0172048Y0038430D01*
X0172207Y0038436D01*
X0172367Y0038438D01*
X0172527Y0038436D01*
X0172686Y0038430D01*
X0172845Y0038420D01*
X0173004Y0038406D01*
X0173163Y0038388D01*
X0173321Y0038367D01*
X0173478Y0038341D01*
X0173635Y0038311D01*
X0173791Y0038278D01*
X0173946Y0038240D01*
X0174100Y0038199D01*
X0174253Y0038154D01*
X0174405Y0038105D01*
X0174556Y0038052D01*
X0174705Y0037996D01*
X0174853Y0037935D01*
X0174999Y0037872D01*
X0175144Y0037804D01*
X0175287Y0037733D01*
X0175428Y0037659D01*
X0175567Y0037581D01*
X0175704Y0037499D01*
X0175839Y0037414D01*
X0175972Y0037326D01*
X0176103Y0037234D01*
X0176231Y0037140D01*
X0176357Y0037042D01*
X0176481Y0036941D01*
X0176602Y0036837D01*
X0176720Y0036730D01*
X0176836Y0036620D01*
X0176949Y0036507D01*
X0177059Y0036391D01*
X0177166Y0036273D01*
X0177270Y0036152D01*
X0177371Y0036028D01*
X0177469Y0035902D01*
X0177563Y0035774D01*
X0177655Y0035643D01*
X0177743Y0035510D01*
X0177828Y0035375D01*
X0177910Y0035238D01*
X0177988Y0035099D01*
X0178062Y0034958D01*
X0178133Y0034815D01*
X0178201Y0034670D01*
X0178264Y0034524D01*
X0178325Y0034376D01*
X0178381Y0034227D01*
X0178434Y0034076D01*
X0178483Y0033924D01*
X0178528Y0033771D01*
X0178569Y0033617D01*
X0178607Y0033462D01*
X0178640Y0033306D01*
X0178670Y0033149D01*
X0178696Y0032992D01*
X0178717Y0032834D01*
X0178735Y0032675D01*
X0178749Y0032516D01*
X0178759Y0032357D01*
X0178765Y0032198D01*
X0178767Y0032038D01*
X0178765Y0031878D01*
X0178759Y0031719D01*
X0178749Y0031560D01*
X0178735Y0031401D01*
X0178717Y0031242D01*
X0178696Y0031084D01*
X0178670Y0030927D01*
X0178640Y0030770D01*
X0178607Y0030614D01*
X0178569Y0030459D01*
X0178528Y0030305D01*
X0178483Y0030152D01*
X0178434Y0030000D01*
X0178381Y0029849D01*
X0178325Y0029700D01*
X0178264Y0029552D01*
X0178201Y0029406D01*
X0178133Y0029261D01*
X0178062Y0029118D01*
X0177988Y0028977D01*
X0177910Y0028838D01*
X0177828Y0028701D01*
X0177743Y0028566D01*
X0177655Y0028433D01*
X0177563Y0028302D01*
X0177469Y0028174D01*
X0177371Y0028048D01*
X0177270Y0027924D01*
X0177166Y0027803D01*
X0177059Y0027685D01*
X0176949Y0027569D01*
X0176836Y0027456D01*
X0176720Y0027346D01*
X0176602Y0027239D01*
X0176481Y0027135D01*
X0176357Y0027034D01*
X0176231Y0026936D01*
X0176103Y0026842D01*
X0175972Y0026750D01*
X0175839Y0026662D01*
X0175704Y0026577D01*
X0175567Y0026495D01*
X0175428Y0026417D01*
X0175287Y0026343D01*
X0175144Y0026272D01*
X0174999Y0026204D01*
X0174853Y0026141D01*
X0174705Y0026080D01*
X0174556Y0026024D01*
X0174405Y0025971D01*
X0174253Y0025922D01*
X0174100Y0025877D01*
X0173946Y0025836D01*
X0173791Y0025798D01*
X0173635Y0025765D01*
X0173478Y0025735D01*
X0173321Y0025709D01*
X0173163Y0025688D01*
X0173004Y0025670D01*
X0172845Y0025656D01*
X0172686Y0025646D01*
X0172527Y0025640D01*
X0172367Y0025638D01*
X0172207Y0025640D01*
X0172048Y0025646D01*
X0171889Y0025656D01*
X0171730Y0025670D01*
X0171571Y0025688D01*
X0171413Y0025709D01*
X0171256Y0025735D01*
X0171099Y0025765D01*
X0170943Y0025798D01*
X0170788Y0025836D01*
X0170634Y0025877D01*
X0170481Y0025922D01*
X0170329Y0025971D01*
X0170178Y0026024D01*
X0170029Y0026080D01*
X0169881Y0026141D01*
X0169735Y0026204D01*
X0169590Y0026272D01*
X0169447Y0026343D01*
X0169306Y0026417D01*
X0169167Y0026495D01*
X0169030Y0026577D01*
X0168895Y0026662D01*
X0168762Y0026750D01*
X0168631Y0026842D01*
X0168503Y0026936D01*
X0168377Y0027034D01*
X0168253Y0027135D01*
X0168132Y0027239D01*
X0168014Y0027346D01*
X0167898Y0027456D01*
X0167785Y0027569D01*
X0167675Y0027685D01*
X0167568Y0027803D01*
X0167464Y0027924D01*
X0167363Y0028048D01*
X0167265Y0028174D01*
X0167171Y0028302D01*
X0167079Y0028433D01*
X0166991Y0028566D01*
X0166906Y0028701D01*
X0166824Y0028838D01*
X0166746Y0028977D01*
X0166672Y0029118D01*
X0166601Y0029261D01*
X0166533Y0029406D01*
X0166470Y0029552D01*
X0166409Y0029700D01*
X0166353Y0029849D01*
X0166300Y0030000D01*
X0166251Y0030152D01*
X0166206Y0030305D01*
X0166165Y0030459D01*
X0166127Y0030614D01*
X0166094Y0030770D01*
X0166064Y0030927D01*
X0166038Y0031084D01*
X0166017Y0031242D01*
X0165999Y0031401D01*
X0165985Y0031560D01*
X0165975Y0031719D01*
X0165969Y0031878D01*
X0165967Y0032038D01*
X0210967Y0032038D02*
X0210969Y0032198D01*
X0210975Y0032357D01*
X0210985Y0032516D01*
X0210999Y0032675D01*
X0211017Y0032834D01*
X0211038Y0032992D01*
X0211064Y0033149D01*
X0211094Y0033306D01*
X0211127Y0033462D01*
X0211165Y0033617D01*
X0211206Y0033771D01*
X0211251Y0033924D01*
X0211300Y0034076D01*
X0211353Y0034227D01*
X0211409Y0034376D01*
X0211470Y0034524D01*
X0211533Y0034670D01*
X0211601Y0034815D01*
X0211672Y0034958D01*
X0211746Y0035099D01*
X0211824Y0035238D01*
X0211906Y0035375D01*
X0211991Y0035510D01*
X0212079Y0035643D01*
X0212171Y0035774D01*
X0212265Y0035902D01*
X0212363Y0036028D01*
X0212464Y0036152D01*
X0212568Y0036273D01*
X0212675Y0036391D01*
X0212785Y0036507D01*
X0212898Y0036620D01*
X0213014Y0036730D01*
X0213132Y0036837D01*
X0213253Y0036941D01*
X0213377Y0037042D01*
X0213503Y0037140D01*
X0213631Y0037234D01*
X0213762Y0037326D01*
X0213895Y0037414D01*
X0214030Y0037499D01*
X0214167Y0037581D01*
X0214306Y0037659D01*
X0214447Y0037733D01*
X0214590Y0037804D01*
X0214735Y0037872D01*
X0214881Y0037935D01*
X0215029Y0037996D01*
X0215178Y0038052D01*
X0215329Y0038105D01*
X0215481Y0038154D01*
X0215634Y0038199D01*
X0215788Y0038240D01*
X0215943Y0038278D01*
X0216099Y0038311D01*
X0216256Y0038341D01*
X0216413Y0038367D01*
X0216571Y0038388D01*
X0216730Y0038406D01*
X0216889Y0038420D01*
X0217048Y0038430D01*
X0217207Y0038436D01*
X0217367Y0038438D01*
X0217527Y0038436D01*
X0217686Y0038430D01*
X0217845Y0038420D01*
X0218004Y0038406D01*
X0218163Y0038388D01*
X0218321Y0038367D01*
X0218478Y0038341D01*
X0218635Y0038311D01*
X0218791Y0038278D01*
X0218946Y0038240D01*
X0219100Y0038199D01*
X0219253Y0038154D01*
X0219405Y0038105D01*
X0219556Y0038052D01*
X0219705Y0037996D01*
X0219853Y0037935D01*
X0219999Y0037872D01*
X0220144Y0037804D01*
X0220287Y0037733D01*
X0220428Y0037659D01*
X0220567Y0037581D01*
X0220704Y0037499D01*
X0220839Y0037414D01*
X0220972Y0037326D01*
X0221103Y0037234D01*
X0221231Y0037140D01*
X0221357Y0037042D01*
X0221481Y0036941D01*
X0221602Y0036837D01*
X0221720Y0036730D01*
X0221836Y0036620D01*
X0221949Y0036507D01*
X0222059Y0036391D01*
X0222166Y0036273D01*
X0222270Y0036152D01*
X0222371Y0036028D01*
X0222469Y0035902D01*
X0222563Y0035774D01*
X0222655Y0035643D01*
X0222743Y0035510D01*
X0222828Y0035375D01*
X0222910Y0035238D01*
X0222988Y0035099D01*
X0223062Y0034958D01*
X0223133Y0034815D01*
X0223201Y0034670D01*
X0223264Y0034524D01*
X0223325Y0034376D01*
X0223381Y0034227D01*
X0223434Y0034076D01*
X0223483Y0033924D01*
X0223528Y0033771D01*
X0223569Y0033617D01*
X0223607Y0033462D01*
X0223640Y0033306D01*
X0223670Y0033149D01*
X0223696Y0032992D01*
X0223717Y0032834D01*
X0223735Y0032675D01*
X0223749Y0032516D01*
X0223759Y0032357D01*
X0223765Y0032198D01*
X0223767Y0032038D01*
X0223765Y0031878D01*
X0223759Y0031719D01*
X0223749Y0031560D01*
X0223735Y0031401D01*
X0223717Y0031242D01*
X0223696Y0031084D01*
X0223670Y0030927D01*
X0223640Y0030770D01*
X0223607Y0030614D01*
X0223569Y0030459D01*
X0223528Y0030305D01*
X0223483Y0030152D01*
X0223434Y0030000D01*
X0223381Y0029849D01*
X0223325Y0029700D01*
X0223264Y0029552D01*
X0223201Y0029406D01*
X0223133Y0029261D01*
X0223062Y0029118D01*
X0222988Y0028977D01*
X0222910Y0028838D01*
X0222828Y0028701D01*
X0222743Y0028566D01*
X0222655Y0028433D01*
X0222563Y0028302D01*
X0222469Y0028174D01*
X0222371Y0028048D01*
X0222270Y0027924D01*
X0222166Y0027803D01*
X0222059Y0027685D01*
X0221949Y0027569D01*
X0221836Y0027456D01*
X0221720Y0027346D01*
X0221602Y0027239D01*
X0221481Y0027135D01*
X0221357Y0027034D01*
X0221231Y0026936D01*
X0221103Y0026842D01*
X0220972Y0026750D01*
X0220839Y0026662D01*
X0220704Y0026577D01*
X0220567Y0026495D01*
X0220428Y0026417D01*
X0220287Y0026343D01*
X0220144Y0026272D01*
X0219999Y0026204D01*
X0219853Y0026141D01*
X0219705Y0026080D01*
X0219556Y0026024D01*
X0219405Y0025971D01*
X0219253Y0025922D01*
X0219100Y0025877D01*
X0218946Y0025836D01*
X0218791Y0025798D01*
X0218635Y0025765D01*
X0218478Y0025735D01*
X0218321Y0025709D01*
X0218163Y0025688D01*
X0218004Y0025670D01*
X0217845Y0025656D01*
X0217686Y0025646D01*
X0217527Y0025640D01*
X0217367Y0025638D01*
X0217207Y0025640D01*
X0217048Y0025646D01*
X0216889Y0025656D01*
X0216730Y0025670D01*
X0216571Y0025688D01*
X0216413Y0025709D01*
X0216256Y0025735D01*
X0216099Y0025765D01*
X0215943Y0025798D01*
X0215788Y0025836D01*
X0215634Y0025877D01*
X0215481Y0025922D01*
X0215329Y0025971D01*
X0215178Y0026024D01*
X0215029Y0026080D01*
X0214881Y0026141D01*
X0214735Y0026204D01*
X0214590Y0026272D01*
X0214447Y0026343D01*
X0214306Y0026417D01*
X0214167Y0026495D01*
X0214030Y0026577D01*
X0213895Y0026662D01*
X0213762Y0026750D01*
X0213631Y0026842D01*
X0213503Y0026936D01*
X0213377Y0027034D01*
X0213253Y0027135D01*
X0213132Y0027239D01*
X0213014Y0027346D01*
X0212898Y0027456D01*
X0212785Y0027569D01*
X0212675Y0027685D01*
X0212568Y0027803D01*
X0212464Y0027924D01*
X0212363Y0028048D01*
X0212265Y0028174D01*
X0212171Y0028302D01*
X0212079Y0028433D01*
X0211991Y0028566D01*
X0211906Y0028701D01*
X0211824Y0028838D01*
X0211746Y0028977D01*
X0211672Y0029118D01*
X0211601Y0029261D01*
X0211533Y0029406D01*
X0211470Y0029552D01*
X0211409Y0029700D01*
X0211353Y0029849D01*
X0211300Y0030000D01*
X0211251Y0030152D01*
X0211206Y0030305D01*
X0211165Y0030459D01*
X0211127Y0030614D01*
X0211094Y0030770D01*
X0211064Y0030927D01*
X0211038Y0031084D01*
X0211017Y0031242D01*
X0210999Y0031401D01*
X0210985Y0031560D01*
X0210975Y0031719D01*
X0210969Y0031878D01*
X0210967Y0032038D01*
X0240967Y0032038D02*
X0240969Y0032198D01*
X0240975Y0032357D01*
X0240985Y0032516D01*
X0240999Y0032675D01*
X0241017Y0032834D01*
X0241038Y0032992D01*
X0241064Y0033149D01*
X0241094Y0033306D01*
X0241127Y0033462D01*
X0241165Y0033617D01*
X0241206Y0033771D01*
X0241251Y0033924D01*
X0241300Y0034076D01*
X0241353Y0034227D01*
X0241409Y0034376D01*
X0241470Y0034524D01*
X0241533Y0034670D01*
X0241601Y0034815D01*
X0241672Y0034958D01*
X0241746Y0035099D01*
X0241824Y0035238D01*
X0241906Y0035375D01*
X0241991Y0035510D01*
X0242079Y0035643D01*
X0242171Y0035774D01*
X0242265Y0035902D01*
X0242363Y0036028D01*
X0242464Y0036152D01*
X0242568Y0036273D01*
X0242675Y0036391D01*
X0242785Y0036507D01*
X0242898Y0036620D01*
X0243014Y0036730D01*
X0243132Y0036837D01*
X0243253Y0036941D01*
X0243377Y0037042D01*
X0243503Y0037140D01*
X0243631Y0037234D01*
X0243762Y0037326D01*
X0243895Y0037414D01*
X0244030Y0037499D01*
X0244167Y0037581D01*
X0244306Y0037659D01*
X0244447Y0037733D01*
X0244590Y0037804D01*
X0244735Y0037872D01*
X0244881Y0037935D01*
X0245029Y0037996D01*
X0245178Y0038052D01*
X0245329Y0038105D01*
X0245481Y0038154D01*
X0245634Y0038199D01*
X0245788Y0038240D01*
X0245943Y0038278D01*
X0246099Y0038311D01*
X0246256Y0038341D01*
X0246413Y0038367D01*
X0246571Y0038388D01*
X0246730Y0038406D01*
X0246889Y0038420D01*
X0247048Y0038430D01*
X0247207Y0038436D01*
X0247367Y0038438D01*
X0247527Y0038436D01*
X0247686Y0038430D01*
X0247845Y0038420D01*
X0248004Y0038406D01*
X0248163Y0038388D01*
X0248321Y0038367D01*
X0248478Y0038341D01*
X0248635Y0038311D01*
X0248791Y0038278D01*
X0248946Y0038240D01*
X0249100Y0038199D01*
X0249253Y0038154D01*
X0249405Y0038105D01*
X0249556Y0038052D01*
X0249705Y0037996D01*
X0249853Y0037935D01*
X0249999Y0037872D01*
X0250144Y0037804D01*
X0250287Y0037733D01*
X0250428Y0037659D01*
X0250567Y0037581D01*
X0250704Y0037499D01*
X0250839Y0037414D01*
X0250972Y0037326D01*
X0251103Y0037234D01*
X0251231Y0037140D01*
X0251357Y0037042D01*
X0251481Y0036941D01*
X0251602Y0036837D01*
X0251720Y0036730D01*
X0251836Y0036620D01*
X0251949Y0036507D01*
X0252059Y0036391D01*
X0252166Y0036273D01*
X0252270Y0036152D01*
X0252371Y0036028D01*
X0252469Y0035902D01*
X0252563Y0035774D01*
X0252655Y0035643D01*
X0252743Y0035510D01*
X0252828Y0035375D01*
X0252910Y0035238D01*
X0252988Y0035099D01*
X0253062Y0034958D01*
X0253133Y0034815D01*
X0253201Y0034670D01*
X0253264Y0034524D01*
X0253325Y0034376D01*
X0253381Y0034227D01*
X0253434Y0034076D01*
X0253483Y0033924D01*
X0253528Y0033771D01*
X0253569Y0033617D01*
X0253607Y0033462D01*
X0253640Y0033306D01*
X0253670Y0033149D01*
X0253696Y0032992D01*
X0253717Y0032834D01*
X0253735Y0032675D01*
X0253749Y0032516D01*
X0253759Y0032357D01*
X0253765Y0032198D01*
X0253767Y0032038D01*
X0253765Y0031878D01*
X0253759Y0031719D01*
X0253749Y0031560D01*
X0253735Y0031401D01*
X0253717Y0031242D01*
X0253696Y0031084D01*
X0253670Y0030927D01*
X0253640Y0030770D01*
X0253607Y0030614D01*
X0253569Y0030459D01*
X0253528Y0030305D01*
X0253483Y0030152D01*
X0253434Y0030000D01*
X0253381Y0029849D01*
X0253325Y0029700D01*
X0253264Y0029552D01*
X0253201Y0029406D01*
X0253133Y0029261D01*
X0253062Y0029118D01*
X0252988Y0028977D01*
X0252910Y0028838D01*
X0252828Y0028701D01*
X0252743Y0028566D01*
X0252655Y0028433D01*
X0252563Y0028302D01*
X0252469Y0028174D01*
X0252371Y0028048D01*
X0252270Y0027924D01*
X0252166Y0027803D01*
X0252059Y0027685D01*
X0251949Y0027569D01*
X0251836Y0027456D01*
X0251720Y0027346D01*
X0251602Y0027239D01*
X0251481Y0027135D01*
X0251357Y0027034D01*
X0251231Y0026936D01*
X0251103Y0026842D01*
X0250972Y0026750D01*
X0250839Y0026662D01*
X0250704Y0026577D01*
X0250567Y0026495D01*
X0250428Y0026417D01*
X0250287Y0026343D01*
X0250144Y0026272D01*
X0249999Y0026204D01*
X0249853Y0026141D01*
X0249705Y0026080D01*
X0249556Y0026024D01*
X0249405Y0025971D01*
X0249253Y0025922D01*
X0249100Y0025877D01*
X0248946Y0025836D01*
X0248791Y0025798D01*
X0248635Y0025765D01*
X0248478Y0025735D01*
X0248321Y0025709D01*
X0248163Y0025688D01*
X0248004Y0025670D01*
X0247845Y0025656D01*
X0247686Y0025646D01*
X0247527Y0025640D01*
X0247367Y0025638D01*
X0247207Y0025640D01*
X0247048Y0025646D01*
X0246889Y0025656D01*
X0246730Y0025670D01*
X0246571Y0025688D01*
X0246413Y0025709D01*
X0246256Y0025735D01*
X0246099Y0025765D01*
X0245943Y0025798D01*
X0245788Y0025836D01*
X0245634Y0025877D01*
X0245481Y0025922D01*
X0245329Y0025971D01*
X0245178Y0026024D01*
X0245029Y0026080D01*
X0244881Y0026141D01*
X0244735Y0026204D01*
X0244590Y0026272D01*
X0244447Y0026343D01*
X0244306Y0026417D01*
X0244167Y0026495D01*
X0244030Y0026577D01*
X0243895Y0026662D01*
X0243762Y0026750D01*
X0243631Y0026842D01*
X0243503Y0026936D01*
X0243377Y0027034D01*
X0243253Y0027135D01*
X0243132Y0027239D01*
X0243014Y0027346D01*
X0242898Y0027456D01*
X0242785Y0027569D01*
X0242675Y0027685D01*
X0242568Y0027803D01*
X0242464Y0027924D01*
X0242363Y0028048D01*
X0242265Y0028174D01*
X0242171Y0028302D01*
X0242079Y0028433D01*
X0241991Y0028566D01*
X0241906Y0028701D01*
X0241824Y0028838D01*
X0241746Y0028977D01*
X0241672Y0029118D01*
X0241601Y0029261D01*
X0241533Y0029406D01*
X0241470Y0029552D01*
X0241409Y0029700D01*
X0241353Y0029849D01*
X0241300Y0030000D01*
X0241251Y0030152D01*
X0241206Y0030305D01*
X0241165Y0030459D01*
X0241127Y0030614D01*
X0241094Y0030770D01*
X0241064Y0030927D01*
X0241038Y0031084D01*
X0241017Y0031242D01*
X0240999Y0031401D01*
X0240985Y0031560D01*
X0240975Y0031719D01*
X0240969Y0031878D01*
X0240967Y0032038D01*
X0285967Y0032038D02*
X0285969Y0032198D01*
X0285975Y0032357D01*
X0285985Y0032516D01*
X0285999Y0032675D01*
X0286017Y0032834D01*
X0286038Y0032992D01*
X0286064Y0033149D01*
X0286094Y0033306D01*
X0286127Y0033462D01*
X0286165Y0033617D01*
X0286206Y0033771D01*
X0286251Y0033924D01*
X0286300Y0034076D01*
X0286353Y0034227D01*
X0286409Y0034376D01*
X0286470Y0034524D01*
X0286533Y0034670D01*
X0286601Y0034815D01*
X0286672Y0034958D01*
X0286746Y0035099D01*
X0286824Y0035238D01*
X0286906Y0035375D01*
X0286991Y0035510D01*
X0287079Y0035643D01*
X0287171Y0035774D01*
X0287265Y0035902D01*
X0287363Y0036028D01*
X0287464Y0036152D01*
X0287568Y0036273D01*
X0287675Y0036391D01*
X0287785Y0036507D01*
X0287898Y0036620D01*
X0288014Y0036730D01*
X0288132Y0036837D01*
X0288253Y0036941D01*
X0288377Y0037042D01*
X0288503Y0037140D01*
X0288631Y0037234D01*
X0288762Y0037326D01*
X0288895Y0037414D01*
X0289030Y0037499D01*
X0289167Y0037581D01*
X0289306Y0037659D01*
X0289447Y0037733D01*
X0289590Y0037804D01*
X0289735Y0037872D01*
X0289881Y0037935D01*
X0290029Y0037996D01*
X0290178Y0038052D01*
X0290329Y0038105D01*
X0290481Y0038154D01*
X0290634Y0038199D01*
X0290788Y0038240D01*
X0290943Y0038278D01*
X0291099Y0038311D01*
X0291256Y0038341D01*
X0291413Y0038367D01*
X0291571Y0038388D01*
X0291730Y0038406D01*
X0291889Y0038420D01*
X0292048Y0038430D01*
X0292207Y0038436D01*
X0292367Y0038438D01*
X0292527Y0038436D01*
X0292686Y0038430D01*
X0292845Y0038420D01*
X0293004Y0038406D01*
X0293163Y0038388D01*
X0293321Y0038367D01*
X0293478Y0038341D01*
X0293635Y0038311D01*
X0293791Y0038278D01*
X0293946Y0038240D01*
X0294100Y0038199D01*
X0294253Y0038154D01*
X0294405Y0038105D01*
X0294556Y0038052D01*
X0294705Y0037996D01*
X0294853Y0037935D01*
X0294999Y0037872D01*
X0295144Y0037804D01*
X0295287Y0037733D01*
X0295428Y0037659D01*
X0295567Y0037581D01*
X0295704Y0037499D01*
X0295839Y0037414D01*
X0295972Y0037326D01*
X0296103Y0037234D01*
X0296231Y0037140D01*
X0296357Y0037042D01*
X0296481Y0036941D01*
X0296602Y0036837D01*
X0296720Y0036730D01*
X0296836Y0036620D01*
X0296949Y0036507D01*
X0297059Y0036391D01*
X0297166Y0036273D01*
X0297270Y0036152D01*
X0297371Y0036028D01*
X0297469Y0035902D01*
X0297563Y0035774D01*
X0297655Y0035643D01*
X0297743Y0035510D01*
X0297828Y0035375D01*
X0297910Y0035238D01*
X0297988Y0035099D01*
X0298062Y0034958D01*
X0298133Y0034815D01*
X0298201Y0034670D01*
X0298264Y0034524D01*
X0298325Y0034376D01*
X0298381Y0034227D01*
X0298434Y0034076D01*
X0298483Y0033924D01*
X0298528Y0033771D01*
X0298569Y0033617D01*
X0298607Y0033462D01*
X0298640Y0033306D01*
X0298670Y0033149D01*
X0298696Y0032992D01*
X0298717Y0032834D01*
X0298735Y0032675D01*
X0298749Y0032516D01*
X0298759Y0032357D01*
X0298765Y0032198D01*
X0298767Y0032038D01*
X0298765Y0031878D01*
X0298759Y0031719D01*
X0298749Y0031560D01*
X0298735Y0031401D01*
X0298717Y0031242D01*
X0298696Y0031084D01*
X0298670Y0030927D01*
X0298640Y0030770D01*
X0298607Y0030614D01*
X0298569Y0030459D01*
X0298528Y0030305D01*
X0298483Y0030152D01*
X0298434Y0030000D01*
X0298381Y0029849D01*
X0298325Y0029700D01*
X0298264Y0029552D01*
X0298201Y0029406D01*
X0298133Y0029261D01*
X0298062Y0029118D01*
X0297988Y0028977D01*
X0297910Y0028838D01*
X0297828Y0028701D01*
X0297743Y0028566D01*
X0297655Y0028433D01*
X0297563Y0028302D01*
X0297469Y0028174D01*
X0297371Y0028048D01*
X0297270Y0027924D01*
X0297166Y0027803D01*
X0297059Y0027685D01*
X0296949Y0027569D01*
X0296836Y0027456D01*
X0296720Y0027346D01*
X0296602Y0027239D01*
X0296481Y0027135D01*
X0296357Y0027034D01*
X0296231Y0026936D01*
X0296103Y0026842D01*
X0295972Y0026750D01*
X0295839Y0026662D01*
X0295704Y0026577D01*
X0295567Y0026495D01*
X0295428Y0026417D01*
X0295287Y0026343D01*
X0295144Y0026272D01*
X0294999Y0026204D01*
X0294853Y0026141D01*
X0294705Y0026080D01*
X0294556Y0026024D01*
X0294405Y0025971D01*
X0294253Y0025922D01*
X0294100Y0025877D01*
X0293946Y0025836D01*
X0293791Y0025798D01*
X0293635Y0025765D01*
X0293478Y0025735D01*
X0293321Y0025709D01*
X0293163Y0025688D01*
X0293004Y0025670D01*
X0292845Y0025656D01*
X0292686Y0025646D01*
X0292527Y0025640D01*
X0292367Y0025638D01*
X0292207Y0025640D01*
X0292048Y0025646D01*
X0291889Y0025656D01*
X0291730Y0025670D01*
X0291571Y0025688D01*
X0291413Y0025709D01*
X0291256Y0025735D01*
X0291099Y0025765D01*
X0290943Y0025798D01*
X0290788Y0025836D01*
X0290634Y0025877D01*
X0290481Y0025922D01*
X0290329Y0025971D01*
X0290178Y0026024D01*
X0290029Y0026080D01*
X0289881Y0026141D01*
X0289735Y0026204D01*
X0289590Y0026272D01*
X0289447Y0026343D01*
X0289306Y0026417D01*
X0289167Y0026495D01*
X0289030Y0026577D01*
X0288895Y0026662D01*
X0288762Y0026750D01*
X0288631Y0026842D01*
X0288503Y0026936D01*
X0288377Y0027034D01*
X0288253Y0027135D01*
X0288132Y0027239D01*
X0288014Y0027346D01*
X0287898Y0027456D01*
X0287785Y0027569D01*
X0287675Y0027685D01*
X0287568Y0027803D01*
X0287464Y0027924D01*
X0287363Y0028048D01*
X0287265Y0028174D01*
X0287171Y0028302D01*
X0287079Y0028433D01*
X0286991Y0028566D01*
X0286906Y0028701D01*
X0286824Y0028838D01*
X0286746Y0028977D01*
X0286672Y0029118D01*
X0286601Y0029261D01*
X0286533Y0029406D01*
X0286470Y0029552D01*
X0286409Y0029700D01*
X0286353Y0029849D01*
X0286300Y0030000D01*
X0286251Y0030152D01*
X0286206Y0030305D01*
X0286165Y0030459D01*
X0286127Y0030614D01*
X0286094Y0030770D01*
X0286064Y0030927D01*
X0286038Y0031084D01*
X0286017Y0031242D01*
X0285999Y0031401D01*
X0285985Y0031560D01*
X0285975Y0031719D01*
X0285969Y0031878D01*
X0285967Y0032038D01*
X0315967Y0032038D02*
X0315969Y0032198D01*
X0315975Y0032357D01*
X0315985Y0032516D01*
X0315999Y0032675D01*
X0316017Y0032834D01*
X0316038Y0032992D01*
X0316064Y0033149D01*
X0316094Y0033306D01*
X0316127Y0033462D01*
X0316165Y0033617D01*
X0316206Y0033771D01*
X0316251Y0033924D01*
X0316300Y0034076D01*
X0316353Y0034227D01*
X0316409Y0034376D01*
X0316470Y0034524D01*
X0316533Y0034670D01*
X0316601Y0034815D01*
X0316672Y0034958D01*
X0316746Y0035099D01*
X0316824Y0035238D01*
X0316906Y0035375D01*
X0316991Y0035510D01*
X0317079Y0035643D01*
X0317171Y0035774D01*
X0317265Y0035902D01*
X0317363Y0036028D01*
X0317464Y0036152D01*
X0317568Y0036273D01*
X0317675Y0036391D01*
X0317785Y0036507D01*
X0317898Y0036620D01*
X0318014Y0036730D01*
X0318132Y0036837D01*
X0318253Y0036941D01*
X0318377Y0037042D01*
X0318503Y0037140D01*
X0318631Y0037234D01*
X0318762Y0037326D01*
X0318895Y0037414D01*
X0319030Y0037499D01*
X0319167Y0037581D01*
X0319306Y0037659D01*
X0319447Y0037733D01*
X0319590Y0037804D01*
X0319735Y0037872D01*
X0319881Y0037935D01*
X0320029Y0037996D01*
X0320178Y0038052D01*
X0320329Y0038105D01*
X0320481Y0038154D01*
X0320634Y0038199D01*
X0320788Y0038240D01*
X0320943Y0038278D01*
X0321099Y0038311D01*
X0321256Y0038341D01*
X0321413Y0038367D01*
X0321571Y0038388D01*
X0321730Y0038406D01*
X0321889Y0038420D01*
X0322048Y0038430D01*
X0322207Y0038436D01*
X0322367Y0038438D01*
X0322527Y0038436D01*
X0322686Y0038430D01*
X0322845Y0038420D01*
X0323004Y0038406D01*
X0323163Y0038388D01*
X0323321Y0038367D01*
X0323478Y0038341D01*
X0323635Y0038311D01*
X0323791Y0038278D01*
X0323946Y0038240D01*
X0324100Y0038199D01*
X0324253Y0038154D01*
X0324405Y0038105D01*
X0324556Y0038052D01*
X0324705Y0037996D01*
X0324853Y0037935D01*
X0324999Y0037872D01*
X0325144Y0037804D01*
X0325287Y0037733D01*
X0325428Y0037659D01*
X0325567Y0037581D01*
X0325704Y0037499D01*
X0325839Y0037414D01*
X0325972Y0037326D01*
X0326103Y0037234D01*
X0326231Y0037140D01*
X0326357Y0037042D01*
X0326481Y0036941D01*
X0326602Y0036837D01*
X0326720Y0036730D01*
X0326836Y0036620D01*
X0326949Y0036507D01*
X0327059Y0036391D01*
X0327166Y0036273D01*
X0327270Y0036152D01*
X0327371Y0036028D01*
X0327469Y0035902D01*
X0327563Y0035774D01*
X0327655Y0035643D01*
X0327743Y0035510D01*
X0327828Y0035375D01*
X0327910Y0035238D01*
X0327988Y0035099D01*
X0328062Y0034958D01*
X0328133Y0034815D01*
X0328201Y0034670D01*
X0328264Y0034524D01*
X0328325Y0034376D01*
X0328381Y0034227D01*
X0328434Y0034076D01*
X0328483Y0033924D01*
X0328528Y0033771D01*
X0328569Y0033617D01*
X0328607Y0033462D01*
X0328640Y0033306D01*
X0328670Y0033149D01*
X0328696Y0032992D01*
X0328717Y0032834D01*
X0328735Y0032675D01*
X0328749Y0032516D01*
X0328759Y0032357D01*
X0328765Y0032198D01*
X0328767Y0032038D01*
X0328765Y0031878D01*
X0328759Y0031719D01*
X0328749Y0031560D01*
X0328735Y0031401D01*
X0328717Y0031242D01*
X0328696Y0031084D01*
X0328670Y0030927D01*
X0328640Y0030770D01*
X0328607Y0030614D01*
X0328569Y0030459D01*
X0328528Y0030305D01*
X0328483Y0030152D01*
X0328434Y0030000D01*
X0328381Y0029849D01*
X0328325Y0029700D01*
X0328264Y0029552D01*
X0328201Y0029406D01*
X0328133Y0029261D01*
X0328062Y0029118D01*
X0327988Y0028977D01*
X0327910Y0028838D01*
X0327828Y0028701D01*
X0327743Y0028566D01*
X0327655Y0028433D01*
X0327563Y0028302D01*
X0327469Y0028174D01*
X0327371Y0028048D01*
X0327270Y0027924D01*
X0327166Y0027803D01*
X0327059Y0027685D01*
X0326949Y0027569D01*
X0326836Y0027456D01*
X0326720Y0027346D01*
X0326602Y0027239D01*
X0326481Y0027135D01*
X0326357Y0027034D01*
X0326231Y0026936D01*
X0326103Y0026842D01*
X0325972Y0026750D01*
X0325839Y0026662D01*
X0325704Y0026577D01*
X0325567Y0026495D01*
X0325428Y0026417D01*
X0325287Y0026343D01*
X0325144Y0026272D01*
X0324999Y0026204D01*
X0324853Y0026141D01*
X0324705Y0026080D01*
X0324556Y0026024D01*
X0324405Y0025971D01*
X0324253Y0025922D01*
X0324100Y0025877D01*
X0323946Y0025836D01*
X0323791Y0025798D01*
X0323635Y0025765D01*
X0323478Y0025735D01*
X0323321Y0025709D01*
X0323163Y0025688D01*
X0323004Y0025670D01*
X0322845Y0025656D01*
X0322686Y0025646D01*
X0322527Y0025640D01*
X0322367Y0025638D01*
X0322207Y0025640D01*
X0322048Y0025646D01*
X0321889Y0025656D01*
X0321730Y0025670D01*
X0321571Y0025688D01*
X0321413Y0025709D01*
X0321256Y0025735D01*
X0321099Y0025765D01*
X0320943Y0025798D01*
X0320788Y0025836D01*
X0320634Y0025877D01*
X0320481Y0025922D01*
X0320329Y0025971D01*
X0320178Y0026024D01*
X0320029Y0026080D01*
X0319881Y0026141D01*
X0319735Y0026204D01*
X0319590Y0026272D01*
X0319447Y0026343D01*
X0319306Y0026417D01*
X0319167Y0026495D01*
X0319030Y0026577D01*
X0318895Y0026662D01*
X0318762Y0026750D01*
X0318631Y0026842D01*
X0318503Y0026936D01*
X0318377Y0027034D01*
X0318253Y0027135D01*
X0318132Y0027239D01*
X0318014Y0027346D01*
X0317898Y0027456D01*
X0317785Y0027569D01*
X0317675Y0027685D01*
X0317568Y0027803D01*
X0317464Y0027924D01*
X0317363Y0028048D01*
X0317265Y0028174D01*
X0317171Y0028302D01*
X0317079Y0028433D01*
X0316991Y0028566D01*
X0316906Y0028701D01*
X0316824Y0028838D01*
X0316746Y0028977D01*
X0316672Y0029118D01*
X0316601Y0029261D01*
X0316533Y0029406D01*
X0316470Y0029552D01*
X0316409Y0029700D01*
X0316353Y0029849D01*
X0316300Y0030000D01*
X0316251Y0030152D01*
X0316206Y0030305D01*
X0316165Y0030459D01*
X0316127Y0030614D01*
X0316094Y0030770D01*
X0316064Y0030927D01*
X0316038Y0031084D01*
X0316017Y0031242D01*
X0315999Y0031401D01*
X0315985Y0031560D01*
X0315975Y0031719D01*
X0315969Y0031878D01*
X0315967Y0032038D01*
X0360967Y0032038D02*
X0360969Y0032198D01*
X0360975Y0032357D01*
X0360985Y0032516D01*
X0360999Y0032675D01*
X0361017Y0032834D01*
X0361038Y0032992D01*
X0361064Y0033149D01*
X0361094Y0033306D01*
X0361127Y0033462D01*
X0361165Y0033617D01*
X0361206Y0033771D01*
X0361251Y0033924D01*
X0361300Y0034076D01*
X0361353Y0034227D01*
X0361409Y0034376D01*
X0361470Y0034524D01*
X0361533Y0034670D01*
X0361601Y0034815D01*
X0361672Y0034958D01*
X0361746Y0035099D01*
X0361824Y0035238D01*
X0361906Y0035375D01*
X0361991Y0035510D01*
X0362079Y0035643D01*
X0362171Y0035774D01*
X0362265Y0035902D01*
X0362363Y0036028D01*
X0362464Y0036152D01*
X0362568Y0036273D01*
X0362675Y0036391D01*
X0362785Y0036507D01*
X0362898Y0036620D01*
X0363014Y0036730D01*
X0363132Y0036837D01*
X0363253Y0036941D01*
X0363377Y0037042D01*
X0363503Y0037140D01*
X0363631Y0037234D01*
X0363762Y0037326D01*
X0363895Y0037414D01*
X0364030Y0037499D01*
X0364167Y0037581D01*
X0364306Y0037659D01*
X0364447Y0037733D01*
X0364590Y0037804D01*
X0364735Y0037872D01*
X0364881Y0037935D01*
X0365029Y0037996D01*
X0365178Y0038052D01*
X0365329Y0038105D01*
X0365481Y0038154D01*
X0365634Y0038199D01*
X0365788Y0038240D01*
X0365943Y0038278D01*
X0366099Y0038311D01*
X0366256Y0038341D01*
X0366413Y0038367D01*
X0366571Y0038388D01*
X0366730Y0038406D01*
X0366889Y0038420D01*
X0367048Y0038430D01*
X0367207Y0038436D01*
X0367367Y0038438D01*
X0367527Y0038436D01*
X0367686Y0038430D01*
X0367845Y0038420D01*
X0368004Y0038406D01*
X0368163Y0038388D01*
X0368321Y0038367D01*
X0368478Y0038341D01*
X0368635Y0038311D01*
X0368791Y0038278D01*
X0368946Y0038240D01*
X0369100Y0038199D01*
X0369253Y0038154D01*
X0369405Y0038105D01*
X0369556Y0038052D01*
X0369705Y0037996D01*
X0369853Y0037935D01*
X0369999Y0037872D01*
X0370144Y0037804D01*
X0370287Y0037733D01*
X0370428Y0037659D01*
X0370567Y0037581D01*
X0370704Y0037499D01*
X0370839Y0037414D01*
X0370972Y0037326D01*
X0371103Y0037234D01*
X0371231Y0037140D01*
X0371357Y0037042D01*
X0371481Y0036941D01*
X0371602Y0036837D01*
X0371720Y0036730D01*
X0371836Y0036620D01*
X0371949Y0036507D01*
X0372059Y0036391D01*
X0372166Y0036273D01*
X0372270Y0036152D01*
X0372371Y0036028D01*
X0372469Y0035902D01*
X0372563Y0035774D01*
X0372655Y0035643D01*
X0372743Y0035510D01*
X0372828Y0035375D01*
X0372910Y0035238D01*
X0372988Y0035099D01*
X0373062Y0034958D01*
X0373133Y0034815D01*
X0373201Y0034670D01*
X0373264Y0034524D01*
X0373325Y0034376D01*
X0373381Y0034227D01*
X0373434Y0034076D01*
X0373483Y0033924D01*
X0373528Y0033771D01*
X0373569Y0033617D01*
X0373607Y0033462D01*
X0373640Y0033306D01*
X0373670Y0033149D01*
X0373696Y0032992D01*
X0373717Y0032834D01*
X0373735Y0032675D01*
X0373749Y0032516D01*
X0373759Y0032357D01*
X0373765Y0032198D01*
X0373767Y0032038D01*
X0373765Y0031878D01*
X0373759Y0031719D01*
X0373749Y0031560D01*
X0373735Y0031401D01*
X0373717Y0031242D01*
X0373696Y0031084D01*
X0373670Y0030927D01*
X0373640Y0030770D01*
X0373607Y0030614D01*
X0373569Y0030459D01*
X0373528Y0030305D01*
X0373483Y0030152D01*
X0373434Y0030000D01*
X0373381Y0029849D01*
X0373325Y0029700D01*
X0373264Y0029552D01*
X0373201Y0029406D01*
X0373133Y0029261D01*
X0373062Y0029118D01*
X0372988Y0028977D01*
X0372910Y0028838D01*
X0372828Y0028701D01*
X0372743Y0028566D01*
X0372655Y0028433D01*
X0372563Y0028302D01*
X0372469Y0028174D01*
X0372371Y0028048D01*
X0372270Y0027924D01*
X0372166Y0027803D01*
X0372059Y0027685D01*
X0371949Y0027569D01*
X0371836Y0027456D01*
X0371720Y0027346D01*
X0371602Y0027239D01*
X0371481Y0027135D01*
X0371357Y0027034D01*
X0371231Y0026936D01*
X0371103Y0026842D01*
X0370972Y0026750D01*
X0370839Y0026662D01*
X0370704Y0026577D01*
X0370567Y0026495D01*
X0370428Y0026417D01*
X0370287Y0026343D01*
X0370144Y0026272D01*
X0369999Y0026204D01*
X0369853Y0026141D01*
X0369705Y0026080D01*
X0369556Y0026024D01*
X0369405Y0025971D01*
X0369253Y0025922D01*
X0369100Y0025877D01*
X0368946Y0025836D01*
X0368791Y0025798D01*
X0368635Y0025765D01*
X0368478Y0025735D01*
X0368321Y0025709D01*
X0368163Y0025688D01*
X0368004Y0025670D01*
X0367845Y0025656D01*
X0367686Y0025646D01*
X0367527Y0025640D01*
X0367367Y0025638D01*
X0367207Y0025640D01*
X0367048Y0025646D01*
X0366889Y0025656D01*
X0366730Y0025670D01*
X0366571Y0025688D01*
X0366413Y0025709D01*
X0366256Y0025735D01*
X0366099Y0025765D01*
X0365943Y0025798D01*
X0365788Y0025836D01*
X0365634Y0025877D01*
X0365481Y0025922D01*
X0365329Y0025971D01*
X0365178Y0026024D01*
X0365029Y0026080D01*
X0364881Y0026141D01*
X0364735Y0026204D01*
X0364590Y0026272D01*
X0364447Y0026343D01*
X0364306Y0026417D01*
X0364167Y0026495D01*
X0364030Y0026577D01*
X0363895Y0026662D01*
X0363762Y0026750D01*
X0363631Y0026842D01*
X0363503Y0026936D01*
X0363377Y0027034D01*
X0363253Y0027135D01*
X0363132Y0027239D01*
X0363014Y0027346D01*
X0362898Y0027456D01*
X0362785Y0027569D01*
X0362675Y0027685D01*
X0362568Y0027803D01*
X0362464Y0027924D01*
X0362363Y0028048D01*
X0362265Y0028174D01*
X0362171Y0028302D01*
X0362079Y0028433D01*
X0361991Y0028566D01*
X0361906Y0028701D01*
X0361824Y0028838D01*
X0361746Y0028977D01*
X0361672Y0029118D01*
X0361601Y0029261D01*
X0361533Y0029406D01*
X0361470Y0029552D01*
X0361409Y0029700D01*
X0361353Y0029849D01*
X0361300Y0030000D01*
X0361251Y0030152D01*
X0361206Y0030305D01*
X0361165Y0030459D01*
X0361127Y0030614D01*
X0361094Y0030770D01*
X0361064Y0030927D01*
X0361038Y0031084D01*
X0361017Y0031242D01*
X0360999Y0031401D01*
X0360985Y0031560D01*
X0360975Y0031719D01*
X0360969Y0031878D01*
X0360967Y0032038D01*
X0373467Y0139538D02*
X0373469Y0139698D01*
X0373475Y0139857D01*
X0373485Y0140016D01*
X0373499Y0140175D01*
X0373517Y0140334D01*
X0373538Y0140492D01*
X0373564Y0140649D01*
X0373594Y0140806D01*
X0373627Y0140962D01*
X0373665Y0141117D01*
X0373706Y0141271D01*
X0373751Y0141424D01*
X0373800Y0141576D01*
X0373853Y0141727D01*
X0373909Y0141876D01*
X0373970Y0142024D01*
X0374033Y0142170D01*
X0374101Y0142315D01*
X0374172Y0142458D01*
X0374246Y0142599D01*
X0374324Y0142738D01*
X0374406Y0142875D01*
X0374491Y0143010D01*
X0374579Y0143143D01*
X0374671Y0143274D01*
X0374765Y0143402D01*
X0374863Y0143528D01*
X0374964Y0143652D01*
X0375068Y0143773D01*
X0375175Y0143891D01*
X0375285Y0144007D01*
X0375398Y0144120D01*
X0375514Y0144230D01*
X0375632Y0144337D01*
X0375753Y0144441D01*
X0375877Y0144542D01*
X0376003Y0144640D01*
X0376131Y0144734D01*
X0376262Y0144826D01*
X0376395Y0144914D01*
X0376530Y0144999D01*
X0376667Y0145081D01*
X0376806Y0145159D01*
X0376947Y0145233D01*
X0377090Y0145304D01*
X0377235Y0145372D01*
X0377381Y0145435D01*
X0377529Y0145496D01*
X0377678Y0145552D01*
X0377829Y0145605D01*
X0377981Y0145654D01*
X0378134Y0145699D01*
X0378288Y0145740D01*
X0378443Y0145778D01*
X0378599Y0145811D01*
X0378756Y0145841D01*
X0378913Y0145867D01*
X0379071Y0145888D01*
X0379230Y0145906D01*
X0379389Y0145920D01*
X0379548Y0145930D01*
X0379707Y0145936D01*
X0379867Y0145938D01*
X0380027Y0145936D01*
X0380186Y0145930D01*
X0380345Y0145920D01*
X0380504Y0145906D01*
X0380663Y0145888D01*
X0380821Y0145867D01*
X0380978Y0145841D01*
X0381135Y0145811D01*
X0381291Y0145778D01*
X0381446Y0145740D01*
X0381600Y0145699D01*
X0381753Y0145654D01*
X0381905Y0145605D01*
X0382056Y0145552D01*
X0382205Y0145496D01*
X0382353Y0145435D01*
X0382499Y0145372D01*
X0382644Y0145304D01*
X0382787Y0145233D01*
X0382928Y0145159D01*
X0383067Y0145081D01*
X0383204Y0144999D01*
X0383339Y0144914D01*
X0383472Y0144826D01*
X0383603Y0144734D01*
X0383731Y0144640D01*
X0383857Y0144542D01*
X0383981Y0144441D01*
X0384102Y0144337D01*
X0384220Y0144230D01*
X0384336Y0144120D01*
X0384449Y0144007D01*
X0384559Y0143891D01*
X0384666Y0143773D01*
X0384770Y0143652D01*
X0384871Y0143528D01*
X0384969Y0143402D01*
X0385063Y0143274D01*
X0385155Y0143143D01*
X0385243Y0143010D01*
X0385328Y0142875D01*
X0385410Y0142738D01*
X0385488Y0142599D01*
X0385562Y0142458D01*
X0385633Y0142315D01*
X0385701Y0142170D01*
X0385764Y0142024D01*
X0385825Y0141876D01*
X0385881Y0141727D01*
X0385934Y0141576D01*
X0385983Y0141424D01*
X0386028Y0141271D01*
X0386069Y0141117D01*
X0386107Y0140962D01*
X0386140Y0140806D01*
X0386170Y0140649D01*
X0386196Y0140492D01*
X0386217Y0140334D01*
X0386235Y0140175D01*
X0386249Y0140016D01*
X0386259Y0139857D01*
X0386265Y0139698D01*
X0386267Y0139538D01*
X0386265Y0139378D01*
X0386259Y0139219D01*
X0386249Y0139060D01*
X0386235Y0138901D01*
X0386217Y0138742D01*
X0386196Y0138584D01*
X0386170Y0138427D01*
X0386140Y0138270D01*
X0386107Y0138114D01*
X0386069Y0137959D01*
X0386028Y0137805D01*
X0385983Y0137652D01*
X0385934Y0137500D01*
X0385881Y0137349D01*
X0385825Y0137200D01*
X0385764Y0137052D01*
X0385701Y0136906D01*
X0385633Y0136761D01*
X0385562Y0136618D01*
X0385488Y0136477D01*
X0385410Y0136338D01*
X0385328Y0136201D01*
X0385243Y0136066D01*
X0385155Y0135933D01*
X0385063Y0135802D01*
X0384969Y0135674D01*
X0384871Y0135548D01*
X0384770Y0135424D01*
X0384666Y0135303D01*
X0384559Y0135185D01*
X0384449Y0135069D01*
X0384336Y0134956D01*
X0384220Y0134846D01*
X0384102Y0134739D01*
X0383981Y0134635D01*
X0383857Y0134534D01*
X0383731Y0134436D01*
X0383603Y0134342D01*
X0383472Y0134250D01*
X0383339Y0134162D01*
X0383204Y0134077D01*
X0383067Y0133995D01*
X0382928Y0133917D01*
X0382787Y0133843D01*
X0382644Y0133772D01*
X0382499Y0133704D01*
X0382353Y0133641D01*
X0382205Y0133580D01*
X0382056Y0133524D01*
X0381905Y0133471D01*
X0381753Y0133422D01*
X0381600Y0133377D01*
X0381446Y0133336D01*
X0381291Y0133298D01*
X0381135Y0133265D01*
X0380978Y0133235D01*
X0380821Y0133209D01*
X0380663Y0133188D01*
X0380504Y0133170D01*
X0380345Y0133156D01*
X0380186Y0133146D01*
X0380027Y0133140D01*
X0379867Y0133138D01*
X0379707Y0133140D01*
X0379548Y0133146D01*
X0379389Y0133156D01*
X0379230Y0133170D01*
X0379071Y0133188D01*
X0378913Y0133209D01*
X0378756Y0133235D01*
X0378599Y0133265D01*
X0378443Y0133298D01*
X0378288Y0133336D01*
X0378134Y0133377D01*
X0377981Y0133422D01*
X0377829Y0133471D01*
X0377678Y0133524D01*
X0377529Y0133580D01*
X0377381Y0133641D01*
X0377235Y0133704D01*
X0377090Y0133772D01*
X0376947Y0133843D01*
X0376806Y0133917D01*
X0376667Y0133995D01*
X0376530Y0134077D01*
X0376395Y0134162D01*
X0376262Y0134250D01*
X0376131Y0134342D01*
X0376003Y0134436D01*
X0375877Y0134534D01*
X0375753Y0134635D01*
X0375632Y0134739D01*
X0375514Y0134846D01*
X0375398Y0134956D01*
X0375285Y0135069D01*
X0375175Y0135185D01*
X0375068Y0135303D01*
X0374964Y0135424D01*
X0374863Y0135548D01*
X0374765Y0135674D01*
X0374671Y0135802D01*
X0374579Y0135933D01*
X0374491Y0136066D01*
X0374406Y0136201D01*
X0374324Y0136338D01*
X0374246Y0136477D01*
X0374172Y0136618D01*
X0374101Y0136761D01*
X0374033Y0136906D01*
X0373970Y0137052D01*
X0373909Y0137200D01*
X0373853Y0137349D01*
X0373800Y0137500D01*
X0373751Y0137652D01*
X0373706Y0137805D01*
X0373665Y0137959D01*
X0373627Y0138114D01*
X0373594Y0138270D01*
X0373564Y0138427D01*
X0373538Y0138584D01*
X0373517Y0138742D01*
X0373499Y0138901D01*
X0373485Y0139060D01*
X0373475Y0139219D01*
X0373469Y0139378D01*
X0373467Y0139538D01*
X0373467Y0184538D02*
X0373469Y0184698D01*
X0373475Y0184857D01*
X0373485Y0185016D01*
X0373499Y0185175D01*
X0373517Y0185334D01*
X0373538Y0185492D01*
X0373564Y0185649D01*
X0373594Y0185806D01*
X0373627Y0185962D01*
X0373665Y0186117D01*
X0373706Y0186271D01*
X0373751Y0186424D01*
X0373800Y0186576D01*
X0373853Y0186727D01*
X0373909Y0186876D01*
X0373970Y0187024D01*
X0374033Y0187170D01*
X0374101Y0187315D01*
X0374172Y0187458D01*
X0374246Y0187599D01*
X0374324Y0187738D01*
X0374406Y0187875D01*
X0374491Y0188010D01*
X0374579Y0188143D01*
X0374671Y0188274D01*
X0374765Y0188402D01*
X0374863Y0188528D01*
X0374964Y0188652D01*
X0375068Y0188773D01*
X0375175Y0188891D01*
X0375285Y0189007D01*
X0375398Y0189120D01*
X0375514Y0189230D01*
X0375632Y0189337D01*
X0375753Y0189441D01*
X0375877Y0189542D01*
X0376003Y0189640D01*
X0376131Y0189734D01*
X0376262Y0189826D01*
X0376395Y0189914D01*
X0376530Y0189999D01*
X0376667Y0190081D01*
X0376806Y0190159D01*
X0376947Y0190233D01*
X0377090Y0190304D01*
X0377235Y0190372D01*
X0377381Y0190435D01*
X0377529Y0190496D01*
X0377678Y0190552D01*
X0377829Y0190605D01*
X0377981Y0190654D01*
X0378134Y0190699D01*
X0378288Y0190740D01*
X0378443Y0190778D01*
X0378599Y0190811D01*
X0378756Y0190841D01*
X0378913Y0190867D01*
X0379071Y0190888D01*
X0379230Y0190906D01*
X0379389Y0190920D01*
X0379548Y0190930D01*
X0379707Y0190936D01*
X0379867Y0190938D01*
X0380027Y0190936D01*
X0380186Y0190930D01*
X0380345Y0190920D01*
X0380504Y0190906D01*
X0380663Y0190888D01*
X0380821Y0190867D01*
X0380978Y0190841D01*
X0381135Y0190811D01*
X0381291Y0190778D01*
X0381446Y0190740D01*
X0381600Y0190699D01*
X0381753Y0190654D01*
X0381905Y0190605D01*
X0382056Y0190552D01*
X0382205Y0190496D01*
X0382353Y0190435D01*
X0382499Y0190372D01*
X0382644Y0190304D01*
X0382787Y0190233D01*
X0382928Y0190159D01*
X0383067Y0190081D01*
X0383204Y0189999D01*
X0383339Y0189914D01*
X0383472Y0189826D01*
X0383603Y0189734D01*
X0383731Y0189640D01*
X0383857Y0189542D01*
X0383981Y0189441D01*
X0384102Y0189337D01*
X0384220Y0189230D01*
X0384336Y0189120D01*
X0384449Y0189007D01*
X0384559Y0188891D01*
X0384666Y0188773D01*
X0384770Y0188652D01*
X0384871Y0188528D01*
X0384969Y0188402D01*
X0385063Y0188274D01*
X0385155Y0188143D01*
X0385243Y0188010D01*
X0385328Y0187875D01*
X0385410Y0187738D01*
X0385488Y0187599D01*
X0385562Y0187458D01*
X0385633Y0187315D01*
X0385701Y0187170D01*
X0385764Y0187024D01*
X0385825Y0186876D01*
X0385881Y0186727D01*
X0385934Y0186576D01*
X0385983Y0186424D01*
X0386028Y0186271D01*
X0386069Y0186117D01*
X0386107Y0185962D01*
X0386140Y0185806D01*
X0386170Y0185649D01*
X0386196Y0185492D01*
X0386217Y0185334D01*
X0386235Y0185175D01*
X0386249Y0185016D01*
X0386259Y0184857D01*
X0386265Y0184698D01*
X0386267Y0184538D01*
X0386265Y0184378D01*
X0386259Y0184219D01*
X0386249Y0184060D01*
X0386235Y0183901D01*
X0386217Y0183742D01*
X0386196Y0183584D01*
X0386170Y0183427D01*
X0386140Y0183270D01*
X0386107Y0183114D01*
X0386069Y0182959D01*
X0386028Y0182805D01*
X0385983Y0182652D01*
X0385934Y0182500D01*
X0385881Y0182349D01*
X0385825Y0182200D01*
X0385764Y0182052D01*
X0385701Y0181906D01*
X0385633Y0181761D01*
X0385562Y0181618D01*
X0385488Y0181477D01*
X0385410Y0181338D01*
X0385328Y0181201D01*
X0385243Y0181066D01*
X0385155Y0180933D01*
X0385063Y0180802D01*
X0384969Y0180674D01*
X0384871Y0180548D01*
X0384770Y0180424D01*
X0384666Y0180303D01*
X0384559Y0180185D01*
X0384449Y0180069D01*
X0384336Y0179956D01*
X0384220Y0179846D01*
X0384102Y0179739D01*
X0383981Y0179635D01*
X0383857Y0179534D01*
X0383731Y0179436D01*
X0383603Y0179342D01*
X0383472Y0179250D01*
X0383339Y0179162D01*
X0383204Y0179077D01*
X0383067Y0178995D01*
X0382928Y0178917D01*
X0382787Y0178843D01*
X0382644Y0178772D01*
X0382499Y0178704D01*
X0382353Y0178641D01*
X0382205Y0178580D01*
X0382056Y0178524D01*
X0381905Y0178471D01*
X0381753Y0178422D01*
X0381600Y0178377D01*
X0381446Y0178336D01*
X0381291Y0178298D01*
X0381135Y0178265D01*
X0380978Y0178235D01*
X0380821Y0178209D01*
X0380663Y0178188D01*
X0380504Y0178170D01*
X0380345Y0178156D01*
X0380186Y0178146D01*
X0380027Y0178140D01*
X0379867Y0178138D01*
X0379707Y0178140D01*
X0379548Y0178146D01*
X0379389Y0178156D01*
X0379230Y0178170D01*
X0379071Y0178188D01*
X0378913Y0178209D01*
X0378756Y0178235D01*
X0378599Y0178265D01*
X0378443Y0178298D01*
X0378288Y0178336D01*
X0378134Y0178377D01*
X0377981Y0178422D01*
X0377829Y0178471D01*
X0377678Y0178524D01*
X0377529Y0178580D01*
X0377381Y0178641D01*
X0377235Y0178704D01*
X0377090Y0178772D01*
X0376947Y0178843D01*
X0376806Y0178917D01*
X0376667Y0178995D01*
X0376530Y0179077D01*
X0376395Y0179162D01*
X0376262Y0179250D01*
X0376131Y0179342D01*
X0376003Y0179436D01*
X0375877Y0179534D01*
X0375753Y0179635D01*
X0375632Y0179739D01*
X0375514Y0179846D01*
X0375398Y0179956D01*
X0375285Y0180069D01*
X0375175Y0180185D01*
X0375068Y0180303D01*
X0374964Y0180424D01*
X0374863Y0180548D01*
X0374765Y0180674D01*
X0374671Y0180802D01*
X0374579Y0180933D01*
X0374491Y0181066D01*
X0374406Y0181201D01*
X0374324Y0181338D01*
X0374246Y0181477D01*
X0374172Y0181618D01*
X0374101Y0181761D01*
X0374033Y0181906D01*
X0373970Y0182052D01*
X0373909Y0182200D01*
X0373853Y0182349D01*
X0373800Y0182500D01*
X0373751Y0182652D01*
X0373706Y0182805D01*
X0373665Y0182959D01*
X0373627Y0183114D01*
X0373594Y0183270D01*
X0373564Y0183427D01*
X0373538Y0183584D01*
X0373517Y0183742D01*
X0373499Y0183901D01*
X0373485Y0184060D01*
X0373475Y0184219D01*
X0373469Y0184378D01*
X0373467Y0184538D01*
X0344946Y0222038D02*
X0344948Y0222178D01*
X0344954Y0222318D01*
X0344964Y0222457D01*
X0344978Y0222596D01*
X0344996Y0222735D01*
X0345017Y0222873D01*
X0345043Y0223011D01*
X0345073Y0223148D01*
X0345106Y0223283D01*
X0345144Y0223418D01*
X0345185Y0223552D01*
X0345230Y0223685D01*
X0345278Y0223816D01*
X0345331Y0223945D01*
X0345387Y0224074D01*
X0345446Y0224200D01*
X0345510Y0224325D01*
X0345576Y0224448D01*
X0345647Y0224569D01*
X0345720Y0224688D01*
X0345797Y0224805D01*
X0345878Y0224919D01*
X0345961Y0225031D01*
X0346048Y0225141D01*
X0346138Y0225249D01*
X0346230Y0225353D01*
X0346326Y0225455D01*
X0346425Y0225555D01*
X0346526Y0225651D01*
X0346630Y0225745D01*
X0346737Y0225835D01*
X0346846Y0225922D01*
X0346958Y0226007D01*
X0347072Y0226088D01*
X0347188Y0226166D01*
X0347306Y0226240D01*
X0347427Y0226311D01*
X0347549Y0226379D01*
X0347674Y0226443D01*
X0347800Y0226504D01*
X0347927Y0226561D01*
X0348057Y0226614D01*
X0348188Y0226664D01*
X0348320Y0226709D01*
X0348453Y0226752D01*
X0348588Y0226790D01*
X0348723Y0226824D01*
X0348860Y0226855D01*
X0348997Y0226882D01*
X0349135Y0226904D01*
X0349274Y0226923D01*
X0349413Y0226938D01*
X0349552Y0226949D01*
X0349692Y0226956D01*
X0349832Y0226959D01*
X0349972Y0226958D01*
X0350112Y0226953D01*
X0350251Y0226944D01*
X0350391Y0226931D01*
X0350530Y0226914D01*
X0350668Y0226893D01*
X0350806Y0226869D01*
X0350943Y0226840D01*
X0351079Y0226808D01*
X0351214Y0226771D01*
X0351348Y0226731D01*
X0351481Y0226687D01*
X0351612Y0226639D01*
X0351742Y0226588D01*
X0351871Y0226533D01*
X0351998Y0226474D01*
X0352123Y0226411D01*
X0352246Y0226346D01*
X0352368Y0226276D01*
X0352487Y0226203D01*
X0352605Y0226127D01*
X0352720Y0226048D01*
X0352833Y0225965D01*
X0352943Y0225879D01*
X0353051Y0225790D01*
X0353156Y0225698D01*
X0353259Y0225603D01*
X0353359Y0225505D01*
X0353456Y0225405D01*
X0353550Y0225301D01*
X0353642Y0225195D01*
X0353730Y0225087D01*
X0353815Y0224976D01*
X0353897Y0224862D01*
X0353976Y0224746D01*
X0354051Y0224629D01*
X0354123Y0224509D01*
X0354191Y0224387D01*
X0354256Y0224263D01*
X0354318Y0224137D01*
X0354376Y0224010D01*
X0354430Y0223881D01*
X0354481Y0223750D01*
X0354527Y0223618D01*
X0354570Y0223485D01*
X0354610Y0223351D01*
X0354645Y0223216D01*
X0354677Y0223079D01*
X0354704Y0222942D01*
X0354728Y0222804D01*
X0354748Y0222666D01*
X0354764Y0222527D01*
X0354776Y0222387D01*
X0354784Y0222248D01*
X0354788Y0222108D01*
X0354788Y0221968D01*
X0354784Y0221828D01*
X0354776Y0221689D01*
X0354764Y0221549D01*
X0354748Y0221410D01*
X0354728Y0221272D01*
X0354704Y0221134D01*
X0354677Y0220997D01*
X0354645Y0220860D01*
X0354610Y0220725D01*
X0354570Y0220591D01*
X0354527Y0220458D01*
X0354481Y0220326D01*
X0354430Y0220195D01*
X0354376Y0220066D01*
X0354318Y0219939D01*
X0354256Y0219813D01*
X0354191Y0219689D01*
X0354123Y0219567D01*
X0354051Y0219447D01*
X0353976Y0219330D01*
X0353897Y0219214D01*
X0353815Y0219100D01*
X0353730Y0218989D01*
X0353642Y0218881D01*
X0353550Y0218775D01*
X0353456Y0218671D01*
X0353359Y0218571D01*
X0353259Y0218473D01*
X0353156Y0218378D01*
X0353051Y0218286D01*
X0352943Y0218197D01*
X0352833Y0218111D01*
X0352720Y0218028D01*
X0352605Y0217949D01*
X0352487Y0217873D01*
X0352368Y0217800D01*
X0352246Y0217730D01*
X0352123Y0217665D01*
X0351998Y0217602D01*
X0351871Y0217543D01*
X0351742Y0217488D01*
X0351612Y0217437D01*
X0351481Y0217389D01*
X0351348Y0217345D01*
X0351214Y0217305D01*
X0351079Y0217268D01*
X0350943Y0217236D01*
X0350806Y0217207D01*
X0350668Y0217183D01*
X0350530Y0217162D01*
X0350391Y0217145D01*
X0350251Y0217132D01*
X0350112Y0217123D01*
X0349972Y0217118D01*
X0349832Y0217117D01*
X0349692Y0217120D01*
X0349552Y0217127D01*
X0349413Y0217138D01*
X0349274Y0217153D01*
X0349135Y0217172D01*
X0348997Y0217194D01*
X0348860Y0217221D01*
X0348723Y0217252D01*
X0348588Y0217286D01*
X0348453Y0217324D01*
X0348320Y0217367D01*
X0348188Y0217412D01*
X0348057Y0217462D01*
X0347927Y0217515D01*
X0347800Y0217572D01*
X0347674Y0217633D01*
X0347549Y0217697D01*
X0347427Y0217765D01*
X0347306Y0217836D01*
X0347188Y0217910D01*
X0347072Y0217988D01*
X0346958Y0218069D01*
X0346846Y0218154D01*
X0346737Y0218241D01*
X0346630Y0218331D01*
X0346526Y0218425D01*
X0346425Y0218521D01*
X0346326Y0218621D01*
X0346230Y0218723D01*
X0346138Y0218827D01*
X0346048Y0218935D01*
X0345961Y0219045D01*
X0345878Y0219157D01*
X0345797Y0219271D01*
X0345720Y0219388D01*
X0345647Y0219507D01*
X0345576Y0219628D01*
X0345510Y0219751D01*
X0345446Y0219876D01*
X0345387Y0220002D01*
X0345331Y0220131D01*
X0345278Y0220260D01*
X0345230Y0220391D01*
X0345185Y0220524D01*
X0345144Y0220658D01*
X0345106Y0220793D01*
X0345073Y0220928D01*
X0345043Y0221065D01*
X0345017Y0221203D01*
X0344996Y0221341D01*
X0344978Y0221480D01*
X0344964Y0221619D01*
X0344954Y0221758D01*
X0344948Y0221898D01*
X0344946Y0222038D01*
X0371993Y0242038D02*
X0371995Y0242231D01*
X0372002Y0242424D01*
X0372014Y0242617D01*
X0372031Y0242810D01*
X0372052Y0243002D01*
X0372078Y0243193D01*
X0372109Y0243384D01*
X0372144Y0243574D01*
X0372184Y0243763D01*
X0372229Y0243951D01*
X0372278Y0244138D01*
X0372332Y0244324D01*
X0372390Y0244508D01*
X0372453Y0244691D01*
X0372521Y0244872D01*
X0372592Y0245051D01*
X0372669Y0245229D01*
X0372749Y0245405D01*
X0372834Y0245578D01*
X0372923Y0245750D01*
X0373016Y0245919D01*
X0373113Y0246086D01*
X0373215Y0246251D01*
X0373320Y0246413D01*
X0373429Y0246572D01*
X0373543Y0246729D01*
X0373660Y0246882D01*
X0373780Y0247033D01*
X0373905Y0247181D01*
X0374033Y0247326D01*
X0374164Y0247467D01*
X0374299Y0247606D01*
X0374438Y0247741D01*
X0374579Y0247872D01*
X0374724Y0248000D01*
X0374872Y0248125D01*
X0375023Y0248245D01*
X0375176Y0248362D01*
X0375333Y0248476D01*
X0375492Y0248585D01*
X0375654Y0248690D01*
X0375819Y0248792D01*
X0375986Y0248889D01*
X0376155Y0248982D01*
X0376327Y0249071D01*
X0376500Y0249156D01*
X0376676Y0249236D01*
X0376854Y0249313D01*
X0377033Y0249384D01*
X0377214Y0249452D01*
X0377397Y0249515D01*
X0377581Y0249573D01*
X0377767Y0249627D01*
X0377954Y0249676D01*
X0378142Y0249721D01*
X0378331Y0249761D01*
X0378521Y0249796D01*
X0378712Y0249827D01*
X0378903Y0249853D01*
X0379095Y0249874D01*
X0379288Y0249891D01*
X0379481Y0249903D01*
X0379674Y0249910D01*
X0379867Y0249912D01*
X0380060Y0249910D01*
X0380253Y0249903D01*
X0380446Y0249891D01*
X0380639Y0249874D01*
X0380831Y0249853D01*
X0381022Y0249827D01*
X0381213Y0249796D01*
X0381403Y0249761D01*
X0381592Y0249721D01*
X0381780Y0249676D01*
X0381967Y0249627D01*
X0382153Y0249573D01*
X0382337Y0249515D01*
X0382520Y0249452D01*
X0382701Y0249384D01*
X0382880Y0249313D01*
X0383058Y0249236D01*
X0383234Y0249156D01*
X0383407Y0249071D01*
X0383579Y0248982D01*
X0383748Y0248889D01*
X0383915Y0248792D01*
X0384080Y0248690D01*
X0384242Y0248585D01*
X0384401Y0248476D01*
X0384558Y0248362D01*
X0384711Y0248245D01*
X0384862Y0248125D01*
X0385010Y0248000D01*
X0385155Y0247872D01*
X0385296Y0247741D01*
X0385435Y0247606D01*
X0385570Y0247467D01*
X0385701Y0247326D01*
X0385829Y0247181D01*
X0385954Y0247033D01*
X0386074Y0246882D01*
X0386191Y0246729D01*
X0386305Y0246572D01*
X0386414Y0246413D01*
X0386519Y0246251D01*
X0386621Y0246086D01*
X0386718Y0245919D01*
X0386811Y0245750D01*
X0386900Y0245578D01*
X0386985Y0245405D01*
X0387065Y0245229D01*
X0387142Y0245051D01*
X0387213Y0244872D01*
X0387281Y0244691D01*
X0387344Y0244508D01*
X0387402Y0244324D01*
X0387456Y0244138D01*
X0387505Y0243951D01*
X0387550Y0243763D01*
X0387590Y0243574D01*
X0387625Y0243384D01*
X0387656Y0243193D01*
X0387682Y0243002D01*
X0387703Y0242810D01*
X0387720Y0242617D01*
X0387732Y0242424D01*
X0387739Y0242231D01*
X0387741Y0242038D01*
X0387739Y0241845D01*
X0387732Y0241652D01*
X0387720Y0241459D01*
X0387703Y0241266D01*
X0387682Y0241074D01*
X0387656Y0240883D01*
X0387625Y0240692D01*
X0387590Y0240502D01*
X0387550Y0240313D01*
X0387505Y0240125D01*
X0387456Y0239938D01*
X0387402Y0239752D01*
X0387344Y0239568D01*
X0387281Y0239385D01*
X0387213Y0239204D01*
X0387142Y0239025D01*
X0387065Y0238847D01*
X0386985Y0238671D01*
X0386900Y0238498D01*
X0386811Y0238326D01*
X0386718Y0238157D01*
X0386621Y0237990D01*
X0386519Y0237825D01*
X0386414Y0237663D01*
X0386305Y0237504D01*
X0386191Y0237347D01*
X0386074Y0237194D01*
X0385954Y0237043D01*
X0385829Y0236895D01*
X0385701Y0236750D01*
X0385570Y0236609D01*
X0385435Y0236470D01*
X0385296Y0236335D01*
X0385155Y0236204D01*
X0385010Y0236076D01*
X0384862Y0235951D01*
X0384711Y0235831D01*
X0384558Y0235714D01*
X0384401Y0235600D01*
X0384242Y0235491D01*
X0384080Y0235386D01*
X0383915Y0235284D01*
X0383748Y0235187D01*
X0383579Y0235094D01*
X0383407Y0235005D01*
X0383234Y0234920D01*
X0383058Y0234840D01*
X0382880Y0234763D01*
X0382701Y0234692D01*
X0382520Y0234624D01*
X0382337Y0234561D01*
X0382153Y0234503D01*
X0381967Y0234449D01*
X0381780Y0234400D01*
X0381592Y0234355D01*
X0381403Y0234315D01*
X0381213Y0234280D01*
X0381022Y0234249D01*
X0380831Y0234223D01*
X0380639Y0234202D01*
X0380446Y0234185D01*
X0380253Y0234173D01*
X0380060Y0234166D01*
X0379867Y0234164D01*
X0379674Y0234166D01*
X0379481Y0234173D01*
X0379288Y0234185D01*
X0379095Y0234202D01*
X0378903Y0234223D01*
X0378712Y0234249D01*
X0378521Y0234280D01*
X0378331Y0234315D01*
X0378142Y0234355D01*
X0377954Y0234400D01*
X0377767Y0234449D01*
X0377581Y0234503D01*
X0377397Y0234561D01*
X0377214Y0234624D01*
X0377033Y0234692D01*
X0376854Y0234763D01*
X0376676Y0234840D01*
X0376500Y0234920D01*
X0376327Y0235005D01*
X0376155Y0235094D01*
X0375986Y0235187D01*
X0375819Y0235284D01*
X0375654Y0235386D01*
X0375492Y0235491D01*
X0375333Y0235600D01*
X0375176Y0235714D01*
X0375023Y0235831D01*
X0374872Y0235951D01*
X0374724Y0236076D01*
X0374579Y0236204D01*
X0374438Y0236335D01*
X0374299Y0236470D01*
X0374164Y0236609D01*
X0374033Y0236750D01*
X0373905Y0236895D01*
X0373780Y0237043D01*
X0373660Y0237194D01*
X0373543Y0237347D01*
X0373429Y0237504D01*
X0373320Y0237663D01*
X0373215Y0237825D01*
X0373113Y0237990D01*
X0373016Y0238157D01*
X0372923Y0238326D01*
X0372834Y0238498D01*
X0372749Y0238671D01*
X0372669Y0238847D01*
X0372592Y0239025D01*
X0372521Y0239204D01*
X0372453Y0239385D01*
X0372390Y0239568D01*
X0372332Y0239752D01*
X0372278Y0239938D01*
X0372229Y0240125D01*
X0372184Y0240313D01*
X0372144Y0240502D01*
X0372109Y0240692D01*
X0372078Y0240883D01*
X0372052Y0241074D01*
X0372031Y0241266D01*
X0372014Y0241459D01*
X0372002Y0241652D01*
X0371995Y0241845D01*
X0371993Y0242038D01*
X0371993Y0282038D02*
X0371995Y0282231D01*
X0372002Y0282424D01*
X0372014Y0282617D01*
X0372031Y0282810D01*
X0372052Y0283002D01*
X0372078Y0283193D01*
X0372109Y0283384D01*
X0372144Y0283574D01*
X0372184Y0283763D01*
X0372229Y0283951D01*
X0372278Y0284138D01*
X0372332Y0284324D01*
X0372390Y0284508D01*
X0372453Y0284691D01*
X0372521Y0284872D01*
X0372592Y0285051D01*
X0372669Y0285229D01*
X0372749Y0285405D01*
X0372834Y0285578D01*
X0372923Y0285750D01*
X0373016Y0285919D01*
X0373113Y0286086D01*
X0373215Y0286251D01*
X0373320Y0286413D01*
X0373429Y0286572D01*
X0373543Y0286729D01*
X0373660Y0286882D01*
X0373780Y0287033D01*
X0373905Y0287181D01*
X0374033Y0287326D01*
X0374164Y0287467D01*
X0374299Y0287606D01*
X0374438Y0287741D01*
X0374579Y0287872D01*
X0374724Y0288000D01*
X0374872Y0288125D01*
X0375023Y0288245D01*
X0375176Y0288362D01*
X0375333Y0288476D01*
X0375492Y0288585D01*
X0375654Y0288690D01*
X0375819Y0288792D01*
X0375986Y0288889D01*
X0376155Y0288982D01*
X0376327Y0289071D01*
X0376500Y0289156D01*
X0376676Y0289236D01*
X0376854Y0289313D01*
X0377033Y0289384D01*
X0377214Y0289452D01*
X0377397Y0289515D01*
X0377581Y0289573D01*
X0377767Y0289627D01*
X0377954Y0289676D01*
X0378142Y0289721D01*
X0378331Y0289761D01*
X0378521Y0289796D01*
X0378712Y0289827D01*
X0378903Y0289853D01*
X0379095Y0289874D01*
X0379288Y0289891D01*
X0379481Y0289903D01*
X0379674Y0289910D01*
X0379867Y0289912D01*
X0380060Y0289910D01*
X0380253Y0289903D01*
X0380446Y0289891D01*
X0380639Y0289874D01*
X0380831Y0289853D01*
X0381022Y0289827D01*
X0381213Y0289796D01*
X0381403Y0289761D01*
X0381592Y0289721D01*
X0381780Y0289676D01*
X0381967Y0289627D01*
X0382153Y0289573D01*
X0382337Y0289515D01*
X0382520Y0289452D01*
X0382701Y0289384D01*
X0382880Y0289313D01*
X0383058Y0289236D01*
X0383234Y0289156D01*
X0383407Y0289071D01*
X0383579Y0288982D01*
X0383748Y0288889D01*
X0383915Y0288792D01*
X0384080Y0288690D01*
X0384242Y0288585D01*
X0384401Y0288476D01*
X0384558Y0288362D01*
X0384711Y0288245D01*
X0384862Y0288125D01*
X0385010Y0288000D01*
X0385155Y0287872D01*
X0385296Y0287741D01*
X0385435Y0287606D01*
X0385570Y0287467D01*
X0385701Y0287326D01*
X0385829Y0287181D01*
X0385954Y0287033D01*
X0386074Y0286882D01*
X0386191Y0286729D01*
X0386305Y0286572D01*
X0386414Y0286413D01*
X0386519Y0286251D01*
X0386621Y0286086D01*
X0386718Y0285919D01*
X0386811Y0285750D01*
X0386900Y0285578D01*
X0386985Y0285405D01*
X0387065Y0285229D01*
X0387142Y0285051D01*
X0387213Y0284872D01*
X0387281Y0284691D01*
X0387344Y0284508D01*
X0387402Y0284324D01*
X0387456Y0284138D01*
X0387505Y0283951D01*
X0387550Y0283763D01*
X0387590Y0283574D01*
X0387625Y0283384D01*
X0387656Y0283193D01*
X0387682Y0283002D01*
X0387703Y0282810D01*
X0387720Y0282617D01*
X0387732Y0282424D01*
X0387739Y0282231D01*
X0387741Y0282038D01*
X0387739Y0281845D01*
X0387732Y0281652D01*
X0387720Y0281459D01*
X0387703Y0281266D01*
X0387682Y0281074D01*
X0387656Y0280883D01*
X0387625Y0280692D01*
X0387590Y0280502D01*
X0387550Y0280313D01*
X0387505Y0280125D01*
X0387456Y0279938D01*
X0387402Y0279752D01*
X0387344Y0279568D01*
X0387281Y0279385D01*
X0387213Y0279204D01*
X0387142Y0279025D01*
X0387065Y0278847D01*
X0386985Y0278671D01*
X0386900Y0278498D01*
X0386811Y0278326D01*
X0386718Y0278157D01*
X0386621Y0277990D01*
X0386519Y0277825D01*
X0386414Y0277663D01*
X0386305Y0277504D01*
X0386191Y0277347D01*
X0386074Y0277194D01*
X0385954Y0277043D01*
X0385829Y0276895D01*
X0385701Y0276750D01*
X0385570Y0276609D01*
X0385435Y0276470D01*
X0385296Y0276335D01*
X0385155Y0276204D01*
X0385010Y0276076D01*
X0384862Y0275951D01*
X0384711Y0275831D01*
X0384558Y0275714D01*
X0384401Y0275600D01*
X0384242Y0275491D01*
X0384080Y0275386D01*
X0383915Y0275284D01*
X0383748Y0275187D01*
X0383579Y0275094D01*
X0383407Y0275005D01*
X0383234Y0274920D01*
X0383058Y0274840D01*
X0382880Y0274763D01*
X0382701Y0274692D01*
X0382520Y0274624D01*
X0382337Y0274561D01*
X0382153Y0274503D01*
X0381967Y0274449D01*
X0381780Y0274400D01*
X0381592Y0274355D01*
X0381403Y0274315D01*
X0381213Y0274280D01*
X0381022Y0274249D01*
X0380831Y0274223D01*
X0380639Y0274202D01*
X0380446Y0274185D01*
X0380253Y0274173D01*
X0380060Y0274166D01*
X0379867Y0274164D01*
X0379674Y0274166D01*
X0379481Y0274173D01*
X0379288Y0274185D01*
X0379095Y0274202D01*
X0378903Y0274223D01*
X0378712Y0274249D01*
X0378521Y0274280D01*
X0378331Y0274315D01*
X0378142Y0274355D01*
X0377954Y0274400D01*
X0377767Y0274449D01*
X0377581Y0274503D01*
X0377397Y0274561D01*
X0377214Y0274624D01*
X0377033Y0274692D01*
X0376854Y0274763D01*
X0376676Y0274840D01*
X0376500Y0274920D01*
X0376327Y0275005D01*
X0376155Y0275094D01*
X0375986Y0275187D01*
X0375819Y0275284D01*
X0375654Y0275386D01*
X0375492Y0275491D01*
X0375333Y0275600D01*
X0375176Y0275714D01*
X0375023Y0275831D01*
X0374872Y0275951D01*
X0374724Y0276076D01*
X0374579Y0276204D01*
X0374438Y0276335D01*
X0374299Y0276470D01*
X0374164Y0276609D01*
X0374033Y0276750D01*
X0373905Y0276895D01*
X0373780Y0277043D01*
X0373660Y0277194D01*
X0373543Y0277347D01*
X0373429Y0277504D01*
X0373320Y0277663D01*
X0373215Y0277825D01*
X0373113Y0277990D01*
X0373016Y0278157D01*
X0372923Y0278326D01*
X0372834Y0278498D01*
X0372749Y0278671D01*
X0372669Y0278847D01*
X0372592Y0279025D01*
X0372521Y0279204D01*
X0372453Y0279385D01*
X0372390Y0279568D01*
X0372332Y0279752D01*
X0372278Y0279938D01*
X0372229Y0280125D01*
X0372184Y0280313D01*
X0372144Y0280502D01*
X0372109Y0280692D01*
X0372078Y0280883D01*
X0372052Y0281074D01*
X0372031Y0281266D01*
X0372014Y0281459D01*
X0372002Y0281652D01*
X0371995Y0281845D01*
X0371993Y0282038D01*
X0344946Y0302038D02*
X0344948Y0302178D01*
X0344954Y0302318D01*
X0344964Y0302457D01*
X0344978Y0302596D01*
X0344996Y0302735D01*
X0345017Y0302873D01*
X0345043Y0303011D01*
X0345073Y0303148D01*
X0345106Y0303283D01*
X0345144Y0303418D01*
X0345185Y0303552D01*
X0345230Y0303685D01*
X0345278Y0303816D01*
X0345331Y0303945D01*
X0345387Y0304074D01*
X0345446Y0304200D01*
X0345510Y0304325D01*
X0345576Y0304448D01*
X0345647Y0304569D01*
X0345720Y0304688D01*
X0345797Y0304805D01*
X0345878Y0304919D01*
X0345961Y0305031D01*
X0346048Y0305141D01*
X0346138Y0305249D01*
X0346230Y0305353D01*
X0346326Y0305455D01*
X0346425Y0305555D01*
X0346526Y0305651D01*
X0346630Y0305745D01*
X0346737Y0305835D01*
X0346846Y0305922D01*
X0346958Y0306007D01*
X0347072Y0306088D01*
X0347188Y0306166D01*
X0347306Y0306240D01*
X0347427Y0306311D01*
X0347549Y0306379D01*
X0347674Y0306443D01*
X0347800Y0306504D01*
X0347927Y0306561D01*
X0348057Y0306614D01*
X0348188Y0306664D01*
X0348320Y0306709D01*
X0348453Y0306752D01*
X0348588Y0306790D01*
X0348723Y0306824D01*
X0348860Y0306855D01*
X0348997Y0306882D01*
X0349135Y0306904D01*
X0349274Y0306923D01*
X0349413Y0306938D01*
X0349552Y0306949D01*
X0349692Y0306956D01*
X0349832Y0306959D01*
X0349972Y0306958D01*
X0350112Y0306953D01*
X0350251Y0306944D01*
X0350391Y0306931D01*
X0350530Y0306914D01*
X0350668Y0306893D01*
X0350806Y0306869D01*
X0350943Y0306840D01*
X0351079Y0306808D01*
X0351214Y0306771D01*
X0351348Y0306731D01*
X0351481Y0306687D01*
X0351612Y0306639D01*
X0351742Y0306588D01*
X0351871Y0306533D01*
X0351998Y0306474D01*
X0352123Y0306411D01*
X0352246Y0306346D01*
X0352368Y0306276D01*
X0352487Y0306203D01*
X0352605Y0306127D01*
X0352720Y0306048D01*
X0352833Y0305965D01*
X0352943Y0305879D01*
X0353051Y0305790D01*
X0353156Y0305698D01*
X0353259Y0305603D01*
X0353359Y0305505D01*
X0353456Y0305405D01*
X0353550Y0305301D01*
X0353642Y0305195D01*
X0353730Y0305087D01*
X0353815Y0304976D01*
X0353897Y0304862D01*
X0353976Y0304746D01*
X0354051Y0304629D01*
X0354123Y0304509D01*
X0354191Y0304387D01*
X0354256Y0304263D01*
X0354318Y0304137D01*
X0354376Y0304010D01*
X0354430Y0303881D01*
X0354481Y0303750D01*
X0354527Y0303618D01*
X0354570Y0303485D01*
X0354610Y0303351D01*
X0354645Y0303216D01*
X0354677Y0303079D01*
X0354704Y0302942D01*
X0354728Y0302804D01*
X0354748Y0302666D01*
X0354764Y0302527D01*
X0354776Y0302387D01*
X0354784Y0302248D01*
X0354788Y0302108D01*
X0354788Y0301968D01*
X0354784Y0301828D01*
X0354776Y0301689D01*
X0354764Y0301549D01*
X0354748Y0301410D01*
X0354728Y0301272D01*
X0354704Y0301134D01*
X0354677Y0300997D01*
X0354645Y0300860D01*
X0354610Y0300725D01*
X0354570Y0300591D01*
X0354527Y0300458D01*
X0354481Y0300326D01*
X0354430Y0300195D01*
X0354376Y0300066D01*
X0354318Y0299939D01*
X0354256Y0299813D01*
X0354191Y0299689D01*
X0354123Y0299567D01*
X0354051Y0299447D01*
X0353976Y0299330D01*
X0353897Y0299214D01*
X0353815Y0299100D01*
X0353730Y0298989D01*
X0353642Y0298881D01*
X0353550Y0298775D01*
X0353456Y0298671D01*
X0353359Y0298571D01*
X0353259Y0298473D01*
X0353156Y0298378D01*
X0353051Y0298286D01*
X0352943Y0298197D01*
X0352833Y0298111D01*
X0352720Y0298028D01*
X0352605Y0297949D01*
X0352487Y0297873D01*
X0352368Y0297800D01*
X0352246Y0297730D01*
X0352123Y0297665D01*
X0351998Y0297602D01*
X0351871Y0297543D01*
X0351742Y0297488D01*
X0351612Y0297437D01*
X0351481Y0297389D01*
X0351348Y0297345D01*
X0351214Y0297305D01*
X0351079Y0297268D01*
X0350943Y0297236D01*
X0350806Y0297207D01*
X0350668Y0297183D01*
X0350530Y0297162D01*
X0350391Y0297145D01*
X0350251Y0297132D01*
X0350112Y0297123D01*
X0349972Y0297118D01*
X0349832Y0297117D01*
X0349692Y0297120D01*
X0349552Y0297127D01*
X0349413Y0297138D01*
X0349274Y0297153D01*
X0349135Y0297172D01*
X0348997Y0297194D01*
X0348860Y0297221D01*
X0348723Y0297252D01*
X0348588Y0297286D01*
X0348453Y0297324D01*
X0348320Y0297367D01*
X0348188Y0297412D01*
X0348057Y0297462D01*
X0347927Y0297515D01*
X0347800Y0297572D01*
X0347674Y0297633D01*
X0347549Y0297697D01*
X0347427Y0297765D01*
X0347306Y0297836D01*
X0347188Y0297910D01*
X0347072Y0297988D01*
X0346958Y0298069D01*
X0346846Y0298154D01*
X0346737Y0298241D01*
X0346630Y0298331D01*
X0346526Y0298425D01*
X0346425Y0298521D01*
X0346326Y0298621D01*
X0346230Y0298723D01*
X0346138Y0298827D01*
X0346048Y0298935D01*
X0345961Y0299045D01*
X0345878Y0299157D01*
X0345797Y0299271D01*
X0345720Y0299388D01*
X0345647Y0299507D01*
X0345576Y0299628D01*
X0345510Y0299751D01*
X0345446Y0299876D01*
X0345387Y0300002D01*
X0345331Y0300131D01*
X0345278Y0300260D01*
X0345230Y0300391D01*
X0345185Y0300524D01*
X0345144Y0300658D01*
X0345106Y0300793D01*
X0345073Y0300928D01*
X0345043Y0301065D01*
X0345017Y0301203D01*
X0344996Y0301341D01*
X0344978Y0301480D01*
X0344964Y0301619D01*
X0344954Y0301758D01*
X0344948Y0301898D01*
X0344946Y0302038D01*
X0210967Y0297038D02*
X0210969Y0297198D01*
X0210975Y0297357D01*
X0210985Y0297516D01*
X0210999Y0297675D01*
X0211017Y0297834D01*
X0211038Y0297992D01*
X0211064Y0298149D01*
X0211094Y0298306D01*
X0211127Y0298462D01*
X0211165Y0298617D01*
X0211206Y0298771D01*
X0211251Y0298924D01*
X0211300Y0299076D01*
X0211353Y0299227D01*
X0211409Y0299376D01*
X0211470Y0299524D01*
X0211533Y0299670D01*
X0211601Y0299815D01*
X0211672Y0299958D01*
X0211746Y0300099D01*
X0211824Y0300238D01*
X0211906Y0300375D01*
X0211991Y0300510D01*
X0212079Y0300643D01*
X0212171Y0300774D01*
X0212265Y0300902D01*
X0212363Y0301028D01*
X0212464Y0301152D01*
X0212568Y0301273D01*
X0212675Y0301391D01*
X0212785Y0301507D01*
X0212898Y0301620D01*
X0213014Y0301730D01*
X0213132Y0301837D01*
X0213253Y0301941D01*
X0213377Y0302042D01*
X0213503Y0302140D01*
X0213631Y0302234D01*
X0213762Y0302326D01*
X0213895Y0302414D01*
X0214030Y0302499D01*
X0214167Y0302581D01*
X0214306Y0302659D01*
X0214447Y0302733D01*
X0214590Y0302804D01*
X0214735Y0302872D01*
X0214881Y0302935D01*
X0215029Y0302996D01*
X0215178Y0303052D01*
X0215329Y0303105D01*
X0215481Y0303154D01*
X0215634Y0303199D01*
X0215788Y0303240D01*
X0215943Y0303278D01*
X0216099Y0303311D01*
X0216256Y0303341D01*
X0216413Y0303367D01*
X0216571Y0303388D01*
X0216730Y0303406D01*
X0216889Y0303420D01*
X0217048Y0303430D01*
X0217207Y0303436D01*
X0217367Y0303438D01*
X0217527Y0303436D01*
X0217686Y0303430D01*
X0217845Y0303420D01*
X0218004Y0303406D01*
X0218163Y0303388D01*
X0218321Y0303367D01*
X0218478Y0303341D01*
X0218635Y0303311D01*
X0218791Y0303278D01*
X0218946Y0303240D01*
X0219100Y0303199D01*
X0219253Y0303154D01*
X0219405Y0303105D01*
X0219556Y0303052D01*
X0219705Y0302996D01*
X0219853Y0302935D01*
X0219999Y0302872D01*
X0220144Y0302804D01*
X0220287Y0302733D01*
X0220428Y0302659D01*
X0220567Y0302581D01*
X0220704Y0302499D01*
X0220839Y0302414D01*
X0220972Y0302326D01*
X0221103Y0302234D01*
X0221231Y0302140D01*
X0221357Y0302042D01*
X0221481Y0301941D01*
X0221602Y0301837D01*
X0221720Y0301730D01*
X0221836Y0301620D01*
X0221949Y0301507D01*
X0222059Y0301391D01*
X0222166Y0301273D01*
X0222270Y0301152D01*
X0222371Y0301028D01*
X0222469Y0300902D01*
X0222563Y0300774D01*
X0222655Y0300643D01*
X0222743Y0300510D01*
X0222828Y0300375D01*
X0222910Y0300238D01*
X0222988Y0300099D01*
X0223062Y0299958D01*
X0223133Y0299815D01*
X0223201Y0299670D01*
X0223264Y0299524D01*
X0223325Y0299376D01*
X0223381Y0299227D01*
X0223434Y0299076D01*
X0223483Y0298924D01*
X0223528Y0298771D01*
X0223569Y0298617D01*
X0223607Y0298462D01*
X0223640Y0298306D01*
X0223670Y0298149D01*
X0223696Y0297992D01*
X0223717Y0297834D01*
X0223735Y0297675D01*
X0223749Y0297516D01*
X0223759Y0297357D01*
X0223765Y0297198D01*
X0223767Y0297038D01*
X0223765Y0296878D01*
X0223759Y0296719D01*
X0223749Y0296560D01*
X0223735Y0296401D01*
X0223717Y0296242D01*
X0223696Y0296084D01*
X0223670Y0295927D01*
X0223640Y0295770D01*
X0223607Y0295614D01*
X0223569Y0295459D01*
X0223528Y0295305D01*
X0223483Y0295152D01*
X0223434Y0295000D01*
X0223381Y0294849D01*
X0223325Y0294700D01*
X0223264Y0294552D01*
X0223201Y0294406D01*
X0223133Y0294261D01*
X0223062Y0294118D01*
X0222988Y0293977D01*
X0222910Y0293838D01*
X0222828Y0293701D01*
X0222743Y0293566D01*
X0222655Y0293433D01*
X0222563Y0293302D01*
X0222469Y0293174D01*
X0222371Y0293048D01*
X0222270Y0292924D01*
X0222166Y0292803D01*
X0222059Y0292685D01*
X0221949Y0292569D01*
X0221836Y0292456D01*
X0221720Y0292346D01*
X0221602Y0292239D01*
X0221481Y0292135D01*
X0221357Y0292034D01*
X0221231Y0291936D01*
X0221103Y0291842D01*
X0220972Y0291750D01*
X0220839Y0291662D01*
X0220704Y0291577D01*
X0220567Y0291495D01*
X0220428Y0291417D01*
X0220287Y0291343D01*
X0220144Y0291272D01*
X0219999Y0291204D01*
X0219853Y0291141D01*
X0219705Y0291080D01*
X0219556Y0291024D01*
X0219405Y0290971D01*
X0219253Y0290922D01*
X0219100Y0290877D01*
X0218946Y0290836D01*
X0218791Y0290798D01*
X0218635Y0290765D01*
X0218478Y0290735D01*
X0218321Y0290709D01*
X0218163Y0290688D01*
X0218004Y0290670D01*
X0217845Y0290656D01*
X0217686Y0290646D01*
X0217527Y0290640D01*
X0217367Y0290638D01*
X0217207Y0290640D01*
X0217048Y0290646D01*
X0216889Y0290656D01*
X0216730Y0290670D01*
X0216571Y0290688D01*
X0216413Y0290709D01*
X0216256Y0290735D01*
X0216099Y0290765D01*
X0215943Y0290798D01*
X0215788Y0290836D01*
X0215634Y0290877D01*
X0215481Y0290922D01*
X0215329Y0290971D01*
X0215178Y0291024D01*
X0215029Y0291080D01*
X0214881Y0291141D01*
X0214735Y0291204D01*
X0214590Y0291272D01*
X0214447Y0291343D01*
X0214306Y0291417D01*
X0214167Y0291495D01*
X0214030Y0291577D01*
X0213895Y0291662D01*
X0213762Y0291750D01*
X0213631Y0291842D01*
X0213503Y0291936D01*
X0213377Y0292034D01*
X0213253Y0292135D01*
X0213132Y0292239D01*
X0213014Y0292346D01*
X0212898Y0292456D01*
X0212785Y0292569D01*
X0212675Y0292685D01*
X0212568Y0292803D01*
X0212464Y0292924D01*
X0212363Y0293048D01*
X0212265Y0293174D01*
X0212171Y0293302D01*
X0212079Y0293433D01*
X0211991Y0293566D01*
X0211906Y0293701D01*
X0211824Y0293838D01*
X0211746Y0293977D01*
X0211672Y0294118D01*
X0211601Y0294261D01*
X0211533Y0294406D01*
X0211470Y0294552D01*
X0211409Y0294700D01*
X0211353Y0294849D01*
X0211300Y0295000D01*
X0211251Y0295152D01*
X0211206Y0295305D01*
X0211165Y0295459D01*
X0211127Y0295614D01*
X0211094Y0295770D01*
X0211064Y0295927D01*
X0211038Y0296084D01*
X0211017Y0296242D01*
X0210999Y0296401D01*
X0210985Y0296560D01*
X0210975Y0296719D01*
X0210969Y0296878D01*
X0210967Y0297038D01*
X0165967Y0297038D02*
X0165969Y0297198D01*
X0165975Y0297357D01*
X0165985Y0297516D01*
X0165999Y0297675D01*
X0166017Y0297834D01*
X0166038Y0297992D01*
X0166064Y0298149D01*
X0166094Y0298306D01*
X0166127Y0298462D01*
X0166165Y0298617D01*
X0166206Y0298771D01*
X0166251Y0298924D01*
X0166300Y0299076D01*
X0166353Y0299227D01*
X0166409Y0299376D01*
X0166470Y0299524D01*
X0166533Y0299670D01*
X0166601Y0299815D01*
X0166672Y0299958D01*
X0166746Y0300099D01*
X0166824Y0300238D01*
X0166906Y0300375D01*
X0166991Y0300510D01*
X0167079Y0300643D01*
X0167171Y0300774D01*
X0167265Y0300902D01*
X0167363Y0301028D01*
X0167464Y0301152D01*
X0167568Y0301273D01*
X0167675Y0301391D01*
X0167785Y0301507D01*
X0167898Y0301620D01*
X0168014Y0301730D01*
X0168132Y0301837D01*
X0168253Y0301941D01*
X0168377Y0302042D01*
X0168503Y0302140D01*
X0168631Y0302234D01*
X0168762Y0302326D01*
X0168895Y0302414D01*
X0169030Y0302499D01*
X0169167Y0302581D01*
X0169306Y0302659D01*
X0169447Y0302733D01*
X0169590Y0302804D01*
X0169735Y0302872D01*
X0169881Y0302935D01*
X0170029Y0302996D01*
X0170178Y0303052D01*
X0170329Y0303105D01*
X0170481Y0303154D01*
X0170634Y0303199D01*
X0170788Y0303240D01*
X0170943Y0303278D01*
X0171099Y0303311D01*
X0171256Y0303341D01*
X0171413Y0303367D01*
X0171571Y0303388D01*
X0171730Y0303406D01*
X0171889Y0303420D01*
X0172048Y0303430D01*
X0172207Y0303436D01*
X0172367Y0303438D01*
X0172527Y0303436D01*
X0172686Y0303430D01*
X0172845Y0303420D01*
X0173004Y0303406D01*
X0173163Y0303388D01*
X0173321Y0303367D01*
X0173478Y0303341D01*
X0173635Y0303311D01*
X0173791Y0303278D01*
X0173946Y0303240D01*
X0174100Y0303199D01*
X0174253Y0303154D01*
X0174405Y0303105D01*
X0174556Y0303052D01*
X0174705Y0302996D01*
X0174853Y0302935D01*
X0174999Y0302872D01*
X0175144Y0302804D01*
X0175287Y0302733D01*
X0175428Y0302659D01*
X0175567Y0302581D01*
X0175704Y0302499D01*
X0175839Y0302414D01*
X0175972Y0302326D01*
X0176103Y0302234D01*
X0176231Y0302140D01*
X0176357Y0302042D01*
X0176481Y0301941D01*
X0176602Y0301837D01*
X0176720Y0301730D01*
X0176836Y0301620D01*
X0176949Y0301507D01*
X0177059Y0301391D01*
X0177166Y0301273D01*
X0177270Y0301152D01*
X0177371Y0301028D01*
X0177469Y0300902D01*
X0177563Y0300774D01*
X0177655Y0300643D01*
X0177743Y0300510D01*
X0177828Y0300375D01*
X0177910Y0300238D01*
X0177988Y0300099D01*
X0178062Y0299958D01*
X0178133Y0299815D01*
X0178201Y0299670D01*
X0178264Y0299524D01*
X0178325Y0299376D01*
X0178381Y0299227D01*
X0178434Y0299076D01*
X0178483Y0298924D01*
X0178528Y0298771D01*
X0178569Y0298617D01*
X0178607Y0298462D01*
X0178640Y0298306D01*
X0178670Y0298149D01*
X0178696Y0297992D01*
X0178717Y0297834D01*
X0178735Y0297675D01*
X0178749Y0297516D01*
X0178759Y0297357D01*
X0178765Y0297198D01*
X0178767Y0297038D01*
X0178765Y0296878D01*
X0178759Y0296719D01*
X0178749Y0296560D01*
X0178735Y0296401D01*
X0178717Y0296242D01*
X0178696Y0296084D01*
X0178670Y0295927D01*
X0178640Y0295770D01*
X0178607Y0295614D01*
X0178569Y0295459D01*
X0178528Y0295305D01*
X0178483Y0295152D01*
X0178434Y0295000D01*
X0178381Y0294849D01*
X0178325Y0294700D01*
X0178264Y0294552D01*
X0178201Y0294406D01*
X0178133Y0294261D01*
X0178062Y0294118D01*
X0177988Y0293977D01*
X0177910Y0293838D01*
X0177828Y0293701D01*
X0177743Y0293566D01*
X0177655Y0293433D01*
X0177563Y0293302D01*
X0177469Y0293174D01*
X0177371Y0293048D01*
X0177270Y0292924D01*
X0177166Y0292803D01*
X0177059Y0292685D01*
X0176949Y0292569D01*
X0176836Y0292456D01*
X0176720Y0292346D01*
X0176602Y0292239D01*
X0176481Y0292135D01*
X0176357Y0292034D01*
X0176231Y0291936D01*
X0176103Y0291842D01*
X0175972Y0291750D01*
X0175839Y0291662D01*
X0175704Y0291577D01*
X0175567Y0291495D01*
X0175428Y0291417D01*
X0175287Y0291343D01*
X0175144Y0291272D01*
X0174999Y0291204D01*
X0174853Y0291141D01*
X0174705Y0291080D01*
X0174556Y0291024D01*
X0174405Y0290971D01*
X0174253Y0290922D01*
X0174100Y0290877D01*
X0173946Y0290836D01*
X0173791Y0290798D01*
X0173635Y0290765D01*
X0173478Y0290735D01*
X0173321Y0290709D01*
X0173163Y0290688D01*
X0173004Y0290670D01*
X0172845Y0290656D01*
X0172686Y0290646D01*
X0172527Y0290640D01*
X0172367Y0290638D01*
X0172207Y0290640D01*
X0172048Y0290646D01*
X0171889Y0290656D01*
X0171730Y0290670D01*
X0171571Y0290688D01*
X0171413Y0290709D01*
X0171256Y0290735D01*
X0171099Y0290765D01*
X0170943Y0290798D01*
X0170788Y0290836D01*
X0170634Y0290877D01*
X0170481Y0290922D01*
X0170329Y0290971D01*
X0170178Y0291024D01*
X0170029Y0291080D01*
X0169881Y0291141D01*
X0169735Y0291204D01*
X0169590Y0291272D01*
X0169447Y0291343D01*
X0169306Y0291417D01*
X0169167Y0291495D01*
X0169030Y0291577D01*
X0168895Y0291662D01*
X0168762Y0291750D01*
X0168631Y0291842D01*
X0168503Y0291936D01*
X0168377Y0292034D01*
X0168253Y0292135D01*
X0168132Y0292239D01*
X0168014Y0292346D01*
X0167898Y0292456D01*
X0167785Y0292569D01*
X0167675Y0292685D01*
X0167568Y0292803D01*
X0167464Y0292924D01*
X0167363Y0293048D01*
X0167265Y0293174D01*
X0167171Y0293302D01*
X0167079Y0293433D01*
X0166991Y0293566D01*
X0166906Y0293701D01*
X0166824Y0293838D01*
X0166746Y0293977D01*
X0166672Y0294118D01*
X0166601Y0294261D01*
X0166533Y0294406D01*
X0166470Y0294552D01*
X0166409Y0294700D01*
X0166353Y0294849D01*
X0166300Y0295000D01*
X0166251Y0295152D01*
X0166206Y0295305D01*
X0166165Y0295459D01*
X0166127Y0295614D01*
X0166094Y0295770D01*
X0166064Y0295927D01*
X0166038Y0296084D01*
X0166017Y0296242D01*
X0165999Y0296401D01*
X0165985Y0296560D01*
X0165975Y0296719D01*
X0165969Y0296878D01*
X0165967Y0297038D01*
X0135967Y0297038D02*
X0135969Y0297198D01*
X0135975Y0297357D01*
X0135985Y0297516D01*
X0135999Y0297675D01*
X0136017Y0297834D01*
X0136038Y0297992D01*
X0136064Y0298149D01*
X0136094Y0298306D01*
X0136127Y0298462D01*
X0136165Y0298617D01*
X0136206Y0298771D01*
X0136251Y0298924D01*
X0136300Y0299076D01*
X0136353Y0299227D01*
X0136409Y0299376D01*
X0136470Y0299524D01*
X0136533Y0299670D01*
X0136601Y0299815D01*
X0136672Y0299958D01*
X0136746Y0300099D01*
X0136824Y0300238D01*
X0136906Y0300375D01*
X0136991Y0300510D01*
X0137079Y0300643D01*
X0137171Y0300774D01*
X0137265Y0300902D01*
X0137363Y0301028D01*
X0137464Y0301152D01*
X0137568Y0301273D01*
X0137675Y0301391D01*
X0137785Y0301507D01*
X0137898Y0301620D01*
X0138014Y0301730D01*
X0138132Y0301837D01*
X0138253Y0301941D01*
X0138377Y0302042D01*
X0138503Y0302140D01*
X0138631Y0302234D01*
X0138762Y0302326D01*
X0138895Y0302414D01*
X0139030Y0302499D01*
X0139167Y0302581D01*
X0139306Y0302659D01*
X0139447Y0302733D01*
X0139590Y0302804D01*
X0139735Y0302872D01*
X0139881Y0302935D01*
X0140029Y0302996D01*
X0140178Y0303052D01*
X0140329Y0303105D01*
X0140481Y0303154D01*
X0140634Y0303199D01*
X0140788Y0303240D01*
X0140943Y0303278D01*
X0141099Y0303311D01*
X0141256Y0303341D01*
X0141413Y0303367D01*
X0141571Y0303388D01*
X0141730Y0303406D01*
X0141889Y0303420D01*
X0142048Y0303430D01*
X0142207Y0303436D01*
X0142367Y0303438D01*
X0142527Y0303436D01*
X0142686Y0303430D01*
X0142845Y0303420D01*
X0143004Y0303406D01*
X0143163Y0303388D01*
X0143321Y0303367D01*
X0143478Y0303341D01*
X0143635Y0303311D01*
X0143791Y0303278D01*
X0143946Y0303240D01*
X0144100Y0303199D01*
X0144253Y0303154D01*
X0144405Y0303105D01*
X0144556Y0303052D01*
X0144705Y0302996D01*
X0144853Y0302935D01*
X0144999Y0302872D01*
X0145144Y0302804D01*
X0145287Y0302733D01*
X0145428Y0302659D01*
X0145567Y0302581D01*
X0145704Y0302499D01*
X0145839Y0302414D01*
X0145972Y0302326D01*
X0146103Y0302234D01*
X0146231Y0302140D01*
X0146357Y0302042D01*
X0146481Y0301941D01*
X0146602Y0301837D01*
X0146720Y0301730D01*
X0146836Y0301620D01*
X0146949Y0301507D01*
X0147059Y0301391D01*
X0147166Y0301273D01*
X0147270Y0301152D01*
X0147371Y0301028D01*
X0147469Y0300902D01*
X0147563Y0300774D01*
X0147655Y0300643D01*
X0147743Y0300510D01*
X0147828Y0300375D01*
X0147910Y0300238D01*
X0147988Y0300099D01*
X0148062Y0299958D01*
X0148133Y0299815D01*
X0148201Y0299670D01*
X0148264Y0299524D01*
X0148325Y0299376D01*
X0148381Y0299227D01*
X0148434Y0299076D01*
X0148483Y0298924D01*
X0148528Y0298771D01*
X0148569Y0298617D01*
X0148607Y0298462D01*
X0148640Y0298306D01*
X0148670Y0298149D01*
X0148696Y0297992D01*
X0148717Y0297834D01*
X0148735Y0297675D01*
X0148749Y0297516D01*
X0148759Y0297357D01*
X0148765Y0297198D01*
X0148767Y0297038D01*
X0148765Y0296878D01*
X0148759Y0296719D01*
X0148749Y0296560D01*
X0148735Y0296401D01*
X0148717Y0296242D01*
X0148696Y0296084D01*
X0148670Y0295927D01*
X0148640Y0295770D01*
X0148607Y0295614D01*
X0148569Y0295459D01*
X0148528Y0295305D01*
X0148483Y0295152D01*
X0148434Y0295000D01*
X0148381Y0294849D01*
X0148325Y0294700D01*
X0148264Y0294552D01*
X0148201Y0294406D01*
X0148133Y0294261D01*
X0148062Y0294118D01*
X0147988Y0293977D01*
X0147910Y0293838D01*
X0147828Y0293701D01*
X0147743Y0293566D01*
X0147655Y0293433D01*
X0147563Y0293302D01*
X0147469Y0293174D01*
X0147371Y0293048D01*
X0147270Y0292924D01*
X0147166Y0292803D01*
X0147059Y0292685D01*
X0146949Y0292569D01*
X0146836Y0292456D01*
X0146720Y0292346D01*
X0146602Y0292239D01*
X0146481Y0292135D01*
X0146357Y0292034D01*
X0146231Y0291936D01*
X0146103Y0291842D01*
X0145972Y0291750D01*
X0145839Y0291662D01*
X0145704Y0291577D01*
X0145567Y0291495D01*
X0145428Y0291417D01*
X0145287Y0291343D01*
X0145144Y0291272D01*
X0144999Y0291204D01*
X0144853Y0291141D01*
X0144705Y0291080D01*
X0144556Y0291024D01*
X0144405Y0290971D01*
X0144253Y0290922D01*
X0144100Y0290877D01*
X0143946Y0290836D01*
X0143791Y0290798D01*
X0143635Y0290765D01*
X0143478Y0290735D01*
X0143321Y0290709D01*
X0143163Y0290688D01*
X0143004Y0290670D01*
X0142845Y0290656D01*
X0142686Y0290646D01*
X0142527Y0290640D01*
X0142367Y0290638D01*
X0142207Y0290640D01*
X0142048Y0290646D01*
X0141889Y0290656D01*
X0141730Y0290670D01*
X0141571Y0290688D01*
X0141413Y0290709D01*
X0141256Y0290735D01*
X0141099Y0290765D01*
X0140943Y0290798D01*
X0140788Y0290836D01*
X0140634Y0290877D01*
X0140481Y0290922D01*
X0140329Y0290971D01*
X0140178Y0291024D01*
X0140029Y0291080D01*
X0139881Y0291141D01*
X0139735Y0291204D01*
X0139590Y0291272D01*
X0139447Y0291343D01*
X0139306Y0291417D01*
X0139167Y0291495D01*
X0139030Y0291577D01*
X0138895Y0291662D01*
X0138762Y0291750D01*
X0138631Y0291842D01*
X0138503Y0291936D01*
X0138377Y0292034D01*
X0138253Y0292135D01*
X0138132Y0292239D01*
X0138014Y0292346D01*
X0137898Y0292456D01*
X0137785Y0292569D01*
X0137675Y0292685D01*
X0137568Y0292803D01*
X0137464Y0292924D01*
X0137363Y0293048D01*
X0137265Y0293174D01*
X0137171Y0293302D01*
X0137079Y0293433D01*
X0136991Y0293566D01*
X0136906Y0293701D01*
X0136824Y0293838D01*
X0136746Y0293977D01*
X0136672Y0294118D01*
X0136601Y0294261D01*
X0136533Y0294406D01*
X0136470Y0294552D01*
X0136409Y0294700D01*
X0136353Y0294849D01*
X0136300Y0295000D01*
X0136251Y0295152D01*
X0136206Y0295305D01*
X0136165Y0295459D01*
X0136127Y0295614D01*
X0136094Y0295770D01*
X0136064Y0295927D01*
X0136038Y0296084D01*
X0136017Y0296242D01*
X0135999Y0296401D01*
X0135985Y0296560D01*
X0135975Y0296719D01*
X0135969Y0296878D01*
X0135967Y0297038D01*
X0090967Y0297038D02*
X0090969Y0297198D01*
X0090975Y0297357D01*
X0090985Y0297516D01*
X0090999Y0297675D01*
X0091017Y0297834D01*
X0091038Y0297992D01*
X0091064Y0298149D01*
X0091094Y0298306D01*
X0091127Y0298462D01*
X0091165Y0298617D01*
X0091206Y0298771D01*
X0091251Y0298924D01*
X0091300Y0299076D01*
X0091353Y0299227D01*
X0091409Y0299376D01*
X0091470Y0299524D01*
X0091533Y0299670D01*
X0091601Y0299815D01*
X0091672Y0299958D01*
X0091746Y0300099D01*
X0091824Y0300238D01*
X0091906Y0300375D01*
X0091991Y0300510D01*
X0092079Y0300643D01*
X0092171Y0300774D01*
X0092265Y0300902D01*
X0092363Y0301028D01*
X0092464Y0301152D01*
X0092568Y0301273D01*
X0092675Y0301391D01*
X0092785Y0301507D01*
X0092898Y0301620D01*
X0093014Y0301730D01*
X0093132Y0301837D01*
X0093253Y0301941D01*
X0093377Y0302042D01*
X0093503Y0302140D01*
X0093631Y0302234D01*
X0093762Y0302326D01*
X0093895Y0302414D01*
X0094030Y0302499D01*
X0094167Y0302581D01*
X0094306Y0302659D01*
X0094447Y0302733D01*
X0094590Y0302804D01*
X0094735Y0302872D01*
X0094881Y0302935D01*
X0095029Y0302996D01*
X0095178Y0303052D01*
X0095329Y0303105D01*
X0095481Y0303154D01*
X0095634Y0303199D01*
X0095788Y0303240D01*
X0095943Y0303278D01*
X0096099Y0303311D01*
X0096256Y0303341D01*
X0096413Y0303367D01*
X0096571Y0303388D01*
X0096730Y0303406D01*
X0096889Y0303420D01*
X0097048Y0303430D01*
X0097207Y0303436D01*
X0097367Y0303438D01*
X0097527Y0303436D01*
X0097686Y0303430D01*
X0097845Y0303420D01*
X0098004Y0303406D01*
X0098163Y0303388D01*
X0098321Y0303367D01*
X0098478Y0303341D01*
X0098635Y0303311D01*
X0098791Y0303278D01*
X0098946Y0303240D01*
X0099100Y0303199D01*
X0099253Y0303154D01*
X0099405Y0303105D01*
X0099556Y0303052D01*
X0099705Y0302996D01*
X0099853Y0302935D01*
X0099999Y0302872D01*
X0100144Y0302804D01*
X0100287Y0302733D01*
X0100428Y0302659D01*
X0100567Y0302581D01*
X0100704Y0302499D01*
X0100839Y0302414D01*
X0100972Y0302326D01*
X0101103Y0302234D01*
X0101231Y0302140D01*
X0101357Y0302042D01*
X0101481Y0301941D01*
X0101602Y0301837D01*
X0101720Y0301730D01*
X0101836Y0301620D01*
X0101949Y0301507D01*
X0102059Y0301391D01*
X0102166Y0301273D01*
X0102270Y0301152D01*
X0102371Y0301028D01*
X0102469Y0300902D01*
X0102563Y0300774D01*
X0102655Y0300643D01*
X0102743Y0300510D01*
X0102828Y0300375D01*
X0102910Y0300238D01*
X0102988Y0300099D01*
X0103062Y0299958D01*
X0103133Y0299815D01*
X0103201Y0299670D01*
X0103264Y0299524D01*
X0103325Y0299376D01*
X0103381Y0299227D01*
X0103434Y0299076D01*
X0103483Y0298924D01*
X0103528Y0298771D01*
X0103569Y0298617D01*
X0103607Y0298462D01*
X0103640Y0298306D01*
X0103670Y0298149D01*
X0103696Y0297992D01*
X0103717Y0297834D01*
X0103735Y0297675D01*
X0103749Y0297516D01*
X0103759Y0297357D01*
X0103765Y0297198D01*
X0103767Y0297038D01*
X0103765Y0296878D01*
X0103759Y0296719D01*
X0103749Y0296560D01*
X0103735Y0296401D01*
X0103717Y0296242D01*
X0103696Y0296084D01*
X0103670Y0295927D01*
X0103640Y0295770D01*
X0103607Y0295614D01*
X0103569Y0295459D01*
X0103528Y0295305D01*
X0103483Y0295152D01*
X0103434Y0295000D01*
X0103381Y0294849D01*
X0103325Y0294700D01*
X0103264Y0294552D01*
X0103201Y0294406D01*
X0103133Y0294261D01*
X0103062Y0294118D01*
X0102988Y0293977D01*
X0102910Y0293838D01*
X0102828Y0293701D01*
X0102743Y0293566D01*
X0102655Y0293433D01*
X0102563Y0293302D01*
X0102469Y0293174D01*
X0102371Y0293048D01*
X0102270Y0292924D01*
X0102166Y0292803D01*
X0102059Y0292685D01*
X0101949Y0292569D01*
X0101836Y0292456D01*
X0101720Y0292346D01*
X0101602Y0292239D01*
X0101481Y0292135D01*
X0101357Y0292034D01*
X0101231Y0291936D01*
X0101103Y0291842D01*
X0100972Y0291750D01*
X0100839Y0291662D01*
X0100704Y0291577D01*
X0100567Y0291495D01*
X0100428Y0291417D01*
X0100287Y0291343D01*
X0100144Y0291272D01*
X0099999Y0291204D01*
X0099853Y0291141D01*
X0099705Y0291080D01*
X0099556Y0291024D01*
X0099405Y0290971D01*
X0099253Y0290922D01*
X0099100Y0290877D01*
X0098946Y0290836D01*
X0098791Y0290798D01*
X0098635Y0290765D01*
X0098478Y0290735D01*
X0098321Y0290709D01*
X0098163Y0290688D01*
X0098004Y0290670D01*
X0097845Y0290656D01*
X0097686Y0290646D01*
X0097527Y0290640D01*
X0097367Y0290638D01*
X0097207Y0290640D01*
X0097048Y0290646D01*
X0096889Y0290656D01*
X0096730Y0290670D01*
X0096571Y0290688D01*
X0096413Y0290709D01*
X0096256Y0290735D01*
X0096099Y0290765D01*
X0095943Y0290798D01*
X0095788Y0290836D01*
X0095634Y0290877D01*
X0095481Y0290922D01*
X0095329Y0290971D01*
X0095178Y0291024D01*
X0095029Y0291080D01*
X0094881Y0291141D01*
X0094735Y0291204D01*
X0094590Y0291272D01*
X0094447Y0291343D01*
X0094306Y0291417D01*
X0094167Y0291495D01*
X0094030Y0291577D01*
X0093895Y0291662D01*
X0093762Y0291750D01*
X0093631Y0291842D01*
X0093503Y0291936D01*
X0093377Y0292034D01*
X0093253Y0292135D01*
X0093132Y0292239D01*
X0093014Y0292346D01*
X0092898Y0292456D01*
X0092785Y0292569D01*
X0092675Y0292685D01*
X0092568Y0292803D01*
X0092464Y0292924D01*
X0092363Y0293048D01*
X0092265Y0293174D01*
X0092171Y0293302D01*
X0092079Y0293433D01*
X0091991Y0293566D01*
X0091906Y0293701D01*
X0091824Y0293838D01*
X0091746Y0293977D01*
X0091672Y0294118D01*
X0091601Y0294261D01*
X0091533Y0294406D01*
X0091470Y0294552D01*
X0091409Y0294700D01*
X0091353Y0294849D01*
X0091300Y0295000D01*
X0091251Y0295152D01*
X0091206Y0295305D01*
X0091165Y0295459D01*
X0091127Y0295614D01*
X0091094Y0295770D01*
X0091064Y0295927D01*
X0091038Y0296084D01*
X0091017Y0296242D01*
X0090999Y0296401D01*
X0090985Y0296560D01*
X0090975Y0296719D01*
X0090969Y0296878D01*
X0090967Y0297038D01*
X0060967Y0297038D02*
X0060969Y0297198D01*
X0060975Y0297357D01*
X0060985Y0297516D01*
X0060999Y0297675D01*
X0061017Y0297834D01*
X0061038Y0297992D01*
X0061064Y0298149D01*
X0061094Y0298306D01*
X0061127Y0298462D01*
X0061165Y0298617D01*
X0061206Y0298771D01*
X0061251Y0298924D01*
X0061300Y0299076D01*
X0061353Y0299227D01*
X0061409Y0299376D01*
X0061470Y0299524D01*
X0061533Y0299670D01*
X0061601Y0299815D01*
X0061672Y0299958D01*
X0061746Y0300099D01*
X0061824Y0300238D01*
X0061906Y0300375D01*
X0061991Y0300510D01*
X0062079Y0300643D01*
X0062171Y0300774D01*
X0062265Y0300902D01*
X0062363Y0301028D01*
X0062464Y0301152D01*
X0062568Y0301273D01*
X0062675Y0301391D01*
X0062785Y0301507D01*
X0062898Y0301620D01*
X0063014Y0301730D01*
X0063132Y0301837D01*
X0063253Y0301941D01*
X0063377Y0302042D01*
X0063503Y0302140D01*
X0063631Y0302234D01*
X0063762Y0302326D01*
X0063895Y0302414D01*
X0064030Y0302499D01*
X0064167Y0302581D01*
X0064306Y0302659D01*
X0064447Y0302733D01*
X0064590Y0302804D01*
X0064735Y0302872D01*
X0064881Y0302935D01*
X0065029Y0302996D01*
X0065178Y0303052D01*
X0065329Y0303105D01*
X0065481Y0303154D01*
X0065634Y0303199D01*
X0065788Y0303240D01*
X0065943Y0303278D01*
X0066099Y0303311D01*
X0066256Y0303341D01*
X0066413Y0303367D01*
X0066571Y0303388D01*
X0066730Y0303406D01*
X0066889Y0303420D01*
X0067048Y0303430D01*
X0067207Y0303436D01*
X0067367Y0303438D01*
X0067527Y0303436D01*
X0067686Y0303430D01*
X0067845Y0303420D01*
X0068004Y0303406D01*
X0068163Y0303388D01*
X0068321Y0303367D01*
X0068478Y0303341D01*
X0068635Y0303311D01*
X0068791Y0303278D01*
X0068946Y0303240D01*
X0069100Y0303199D01*
X0069253Y0303154D01*
X0069405Y0303105D01*
X0069556Y0303052D01*
X0069705Y0302996D01*
X0069853Y0302935D01*
X0069999Y0302872D01*
X0070144Y0302804D01*
X0070287Y0302733D01*
X0070428Y0302659D01*
X0070567Y0302581D01*
X0070704Y0302499D01*
X0070839Y0302414D01*
X0070972Y0302326D01*
X0071103Y0302234D01*
X0071231Y0302140D01*
X0071357Y0302042D01*
X0071481Y0301941D01*
X0071602Y0301837D01*
X0071720Y0301730D01*
X0071836Y0301620D01*
X0071949Y0301507D01*
X0072059Y0301391D01*
X0072166Y0301273D01*
X0072270Y0301152D01*
X0072371Y0301028D01*
X0072469Y0300902D01*
X0072563Y0300774D01*
X0072655Y0300643D01*
X0072743Y0300510D01*
X0072828Y0300375D01*
X0072910Y0300238D01*
X0072988Y0300099D01*
X0073062Y0299958D01*
X0073133Y0299815D01*
X0073201Y0299670D01*
X0073264Y0299524D01*
X0073325Y0299376D01*
X0073381Y0299227D01*
X0073434Y0299076D01*
X0073483Y0298924D01*
X0073528Y0298771D01*
X0073569Y0298617D01*
X0073607Y0298462D01*
X0073640Y0298306D01*
X0073670Y0298149D01*
X0073696Y0297992D01*
X0073717Y0297834D01*
X0073735Y0297675D01*
X0073749Y0297516D01*
X0073759Y0297357D01*
X0073765Y0297198D01*
X0073767Y0297038D01*
X0073765Y0296878D01*
X0073759Y0296719D01*
X0073749Y0296560D01*
X0073735Y0296401D01*
X0073717Y0296242D01*
X0073696Y0296084D01*
X0073670Y0295927D01*
X0073640Y0295770D01*
X0073607Y0295614D01*
X0073569Y0295459D01*
X0073528Y0295305D01*
X0073483Y0295152D01*
X0073434Y0295000D01*
X0073381Y0294849D01*
X0073325Y0294700D01*
X0073264Y0294552D01*
X0073201Y0294406D01*
X0073133Y0294261D01*
X0073062Y0294118D01*
X0072988Y0293977D01*
X0072910Y0293838D01*
X0072828Y0293701D01*
X0072743Y0293566D01*
X0072655Y0293433D01*
X0072563Y0293302D01*
X0072469Y0293174D01*
X0072371Y0293048D01*
X0072270Y0292924D01*
X0072166Y0292803D01*
X0072059Y0292685D01*
X0071949Y0292569D01*
X0071836Y0292456D01*
X0071720Y0292346D01*
X0071602Y0292239D01*
X0071481Y0292135D01*
X0071357Y0292034D01*
X0071231Y0291936D01*
X0071103Y0291842D01*
X0070972Y0291750D01*
X0070839Y0291662D01*
X0070704Y0291577D01*
X0070567Y0291495D01*
X0070428Y0291417D01*
X0070287Y0291343D01*
X0070144Y0291272D01*
X0069999Y0291204D01*
X0069853Y0291141D01*
X0069705Y0291080D01*
X0069556Y0291024D01*
X0069405Y0290971D01*
X0069253Y0290922D01*
X0069100Y0290877D01*
X0068946Y0290836D01*
X0068791Y0290798D01*
X0068635Y0290765D01*
X0068478Y0290735D01*
X0068321Y0290709D01*
X0068163Y0290688D01*
X0068004Y0290670D01*
X0067845Y0290656D01*
X0067686Y0290646D01*
X0067527Y0290640D01*
X0067367Y0290638D01*
X0067207Y0290640D01*
X0067048Y0290646D01*
X0066889Y0290656D01*
X0066730Y0290670D01*
X0066571Y0290688D01*
X0066413Y0290709D01*
X0066256Y0290735D01*
X0066099Y0290765D01*
X0065943Y0290798D01*
X0065788Y0290836D01*
X0065634Y0290877D01*
X0065481Y0290922D01*
X0065329Y0290971D01*
X0065178Y0291024D01*
X0065029Y0291080D01*
X0064881Y0291141D01*
X0064735Y0291204D01*
X0064590Y0291272D01*
X0064447Y0291343D01*
X0064306Y0291417D01*
X0064167Y0291495D01*
X0064030Y0291577D01*
X0063895Y0291662D01*
X0063762Y0291750D01*
X0063631Y0291842D01*
X0063503Y0291936D01*
X0063377Y0292034D01*
X0063253Y0292135D01*
X0063132Y0292239D01*
X0063014Y0292346D01*
X0062898Y0292456D01*
X0062785Y0292569D01*
X0062675Y0292685D01*
X0062568Y0292803D01*
X0062464Y0292924D01*
X0062363Y0293048D01*
X0062265Y0293174D01*
X0062171Y0293302D01*
X0062079Y0293433D01*
X0061991Y0293566D01*
X0061906Y0293701D01*
X0061824Y0293838D01*
X0061746Y0293977D01*
X0061672Y0294118D01*
X0061601Y0294261D01*
X0061533Y0294406D01*
X0061470Y0294552D01*
X0061409Y0294700D01*
X0061353Y0294849D01*
X0061300Y0295000D01*
X0061251Y0295152D01*
X0061206Y0295305D01*
X0061165Y0295459D01*
X0061127Y0295614D01*
X0061094Y0295770D01*
X0061064Y0295927D01*
X0061038Y0296084D01*
X0061017Y0296242D01*
X0060999Y0296401D01*
X0060985Y0296560D01*
X0060975Y0296719D01*
X0060969Y0296878D01*
X0060967Y0297038D01*
X0015967Y0297038D02*
X0015969Y0297198D01*
X0015975Y0297357D01*
X0015985Y0297516D01*
X0015999Y0297675D01*
X0016017Y0297834D01*
X0016038Y0297992D01*
X0016064Y0298149D01*
X0016094Y0298306D01*
X0016127Y0298462D01*
X0016165Y0298617D01*
X0016206Y0298771D01*
X0016251Y0298924D01*
X0016300Y0299076D01*
X0016353Y0299227D01*
X0016409Y0299376D01*
X0016470Y0299524D01*
X0016533Y0299670D01*
X0016601Y0299815D01*
X0016672Y0299958D01*
X0016746Y0300099D01*
X0016824Y0300238D01*
X0016906Y0300375D01*
X0016991Y0300510D01*
X0017079Y0300643D01*
X0017171Y0300774D01*
X0017265Y0300902D01*
X0017363Y0301028D01*
X0017464Y0301152D01*
X0017568Y0301273D01*
X0017675Y0301391D01*
X0017785Y0301507D01*
X0017898Y0301620D01*
X0018014Y0301730D01*
X0018132Y0301837D01*
X0018253Y0301941D01*
X0018377Y0302042D01*
X0018503Y0302140D01*
X0018631Y0302234D01*
X0018762Y0302326D01*
X0018895Y0302414D01*
X0019030Y0302499D01*
X0019167Y0302581D01*
X0019306Y0302659D01*
X0019447Y0302733D01*
X0019590Y0302804D01*
X0019735Y0302872D01*
X0019881Y0302935D01*
X0020029Y0302996D01*
X0020178Y0303052D01*
X0020329Y0303105D01*
X0020481Y0303154D01*
X0020634Y0303199D01*
X0020788Y0303240D01*
X0020943Y0303278D01*
X0021099Y0303311D01*
X0021256Y0303341D01*
X0021413Y0303367D01*
X0021571Y0303388D01*
X0021730Y0303406D01*
X0021889Y0303420D01*
X0022048Y0303430D01*
X0022207Y0303436D01*
X0022367Y0303438D01*
X0022527Y0303436D01*
X0022686Y0303430D01*
X0022845Y0303420D01*
X0023004Y0303406D01*
X0023163Y0303388D01*
X0023321Y0303367D01*
X0023478Y0303341D01*
X0023635Y0303311D01*
X0023791Y0303278D01*
X0023946Y0303240D01*
X0024100Y0303199D01*
X0024253Y0303154D01*
X0024405Y0303105D01*
X0024556Y0303052D01*
X0024705Y0302996D01*
X0024853Y0302935D01*
X0024999Y0302872D01*
X0025144Y0302804D01*
X0025287Y0302733D01*
X0025428Y0302659D01*
X0025567Y0302581D01*
X0025704Y0302499D01*
X0025839Y0302414D01*
X0025972Y0302326D01*
X0026103Y0302234D01*
X0026231Y0302140D01*
X0026357Y0302042D01*
X0026481Y0301941D01*
X0026602Y0301837D01*
X0026720Y0301730D01*
X0026836Y0301620D01*
X0026949Y0301507D01*
X0027059Y0301391D01*
X0027166Y0301273D01*
X0027270Y0301152D01*
X0027371Y0301028D01*
X0027469Y0300902D01*
X0027563Y0300774D01*
X0027655Y0300643D01*
X0027743Y0300510D01*
X0027828Y0300375D01*
X0027910Y0300238D01*
X0027988Y0300099D01*
X0028062Y0299958D01*
X0028133Y0299815D01*
X0028201Y0299670D01*
X0028264Y0299524D01*
X0028325Y0299376D01*
X0028381Y0299227D01*
X0028434Y0299076D01*
X0028483Y0298924D01*
X0028528Y0298771D01*
X0028569Y0298617D01*
X0028607Y0298462D01*
X0028640Y0298306D01*
X0028670Y0298149D01*
X0028696Y0297992D01*
X0028717Y0297834D01*
X0028735Y0297675D01*
X0028749Y0297516D01*
X0028759Y0297357D01*
X0028765Y0297198D01*
X0028767Y0297038D01*
X0028765Y0296878D01*
X0028759Y0296719D01*
X0028749Y0296560D01*
X0028735Y0296401D01*
X0028717Y0296242D01*
X0028696Y0296084D01*
X0028670Y0295927D01*
X0028640Y0295770D01*
X0028607Y0295614D01*
X0028569Y0295459D01*
X0028528Y0295305D01*
X0028483Y0295152D01*
X0028434Y0295000D01*
X0028381Y0294849D01*
X0028325Y0294700D01*
X0028264Y0294552D01*
X0028201Y0294406D01*
X0028133Y0294261D01*
X0028062Y0294118D01*
X0027988Y0293977D01*
X0027910Y0293838D01*
X0027828Y0293701D01*
X0027743Y0293566D01*
X0027655Y0293433D01*
X0027563Y0293302D01*
X0027469Y0293174D01*
X0027371Y0293048D01*
X0027270Y0292924D01*
X0027166Y0292803D01*
X0027059Y0292685D01*
X0026949Y0292569D01*
X0026836Y0292456D01*
X0026720Y0292346D01*
X0026602Y0292239D01*
X0026481Y0292135D01*
X0026357Y0292034D01*
X0026231Y0291936D01*
X0026103Y0291842D01*
X0025972Y0291750D01*
X0025839Y0291662D01*
X0025704Y0291577D01*
X0025567Y0291495D01*
X0025428Y0291417D01*
X0025287Y0291343D01*
X0025144Y0291272D01*
X0024999Y0291204D01*
X0024853Y0291141D01*
X0024705Y0291080D01*
X0024556Y0291024D01*
X0024405Y0290971D01*
X0024253Y0290922D01*
X0024100Y0290877D01*
X0023946Y0290836D01*
X0023791Y0290798D01*
X0023635Y0290765D01*
X0023478Y0290735D01*
X0023321Y0290709D01*
X0023163Y0290688D01*
X0023004Y0290670D01*
X0022845Y0290656D01*
X0022686Y0290646D01*
X0022527Y0290640D01*
X0022367Y0290638D01*
X0022207Y0290640D01*
X0022048Y0290646D01*
X0021889Y0290656D01*
X0021730Y0290670D01*
X0021571Y0290688D01*
X0021413Y0290709D01*
X0021256Y0290735D01*
X0021099Y0290765D01*
X0020943Y0290798D01*
X0020788Y0290836D01*
X0020634Y0290877D01*
X0020481Y0290922D01*
X0020329Y0290971D01*
X0020178Y0291024D01*
X0020029Y0291080D01*
X0019881Y0291141D01*
X0019735Y0291204D01*
X0019590Y0291272D01*
X0019447Y0291343D01*
X0019306Y0291417D01*
X0019167Y0291495D01*
X0019030Y0291577D01*
X0018895Y0291662D01*
X0018762Y0291750D01*
X0018631Y0291842D01*
X0018503Y0291936D01*
X0018377Y0292034D01*
X0018253Y0292135D01*
X0018132Y0292239D01*
X0018014Y0292346D01*
X0017898Y0292456D01*
X0017785Y0292569D01*
X0017675Y0292685D01*
X0017568Y0292803D01*
X0017464Y0292924D01*
X0017363Y0293048D01*
X0017265Y0293174D01*
X0017171Y0293302D01*
X0017079Y0293433D01*
X0016991Y0293566D01*
X0016906Y0293701D01*
X0016824Y0293838D01*
X0016746Y0293977D01*
X0016672Y0294118D01*
X0016601Y0294261D01*
X0016533Y0294406D01*
X0016470Y0294552D01*
X0016409Y0294700D01*
X0016353Y0294849D01*
X0016300Y0295000D01*
X0016251Y0295152D01*
X0016206Y0295305D01*
X0016165Y0295459D01*
X0016127Y0295614D01*
X0016094Y0295770D01*
X0016064Y0295927D01*
X0016038Y0296084D01*
X0016017Y0296242D01*
X0015999Y0296401D01*
X0015985Y0296560D01*
X0015975Y0296719D01*
X0015969Y0296878D01*
X0015967Y0297038D01*
D11*
X0159867Y0112038D03*
X0169867Y0112038D03*
X0179867Y0112038D03*
X0189867Y0112038D03*
X0199867Y0112038D03*
X0199867Y0102038D03*
X0189867Y0102038D03*
X0179867Y0102038D03*
X0169867Y0102038D03*
X0159867Y0102038D03*
X0259867Y0197038D03*
X0269867Y0197038D03*
X0269867Y0207038D03*
X0259867Y0207038D03*
X0259867Y0217038D03*
X0269867Y0217038D03*
D12*
X0334749Y0232038D02*
X0344985Y0232038D01*
X0344985Y0252038D02*
X0334749Y0252038D01*
X0334749Y0272038D02*
X0344985Y0272038D01*
X0344985Y0292038D02*
X0334749Y0292038D01*
D13*
X0078117Y0010338D02*
X0011617Y0010338D01*
X0086617Y0010338D02*
X0153117Y0010338D01*
X0161617Y0010338D02*
X0228117Y0010338D01*
X0236617Y0010338D02*
X0303117Y0010338D01*
X0311617Y0010338D02*
X0378117Y0010338D01*
X0401567Y0128788D02*
X0401567Y0195288D01*
X0228117Y0318738D02*
X0161617Y0318738D01*
X0153117Y0318738D02*
X0086617Y0318738D01*
X0078117Y0318738D02*
X0011617Y0318738D01*
D14*
X0032367Y0272038D03*
X0042367Y0272038D03*
X0052367Y0272038D03*
X0062367Y0272038D03*
X0057367Y0262038D03*
X0047367Y0262038D03*
X0037367Y0262038D03*
X0027367Y0262038D03*
X0102367Y0262038D03*
X0112367Y0262038D03*
X0122367Y0262038D03*
X0132367Y0262038D03*
X0137367Y0272038D03*
X0127367Y0272038D03*
X0117367Y0272038D03*
X0107367Y0272038D03*
X0177367Y0262038D03*
X0187367Y0262038D03*
X0197367Y0262038D03*
X0207367Y0262038D03*
X0212367Y0272038D03*
X0202367Y0272038D03*
X0192367Y0272038D03*
X0182367Y0272038D03*
X0344867Y0179538D03*
X0344867Y0169538D03*
X0344867Y0159538D03*
X0344867Y0149538D03*
X0354867Y0154538D03*
X0354867Y0144538D03*
X0354867Y0164538D03*
X0354867Y0174538D03*
X0352367Y0067038D03*
X0362367Y0067038D03*
X0357367Y0057038D03*
X0347367Y0057038D03*
X0337367Y0057038D03*
X0327367Y0057038D03*
X0332367Y0067038D03*
X0342367Y0067038D03*
X0287367Y0067038D03*
X0277367Y0067038D03*
X0267367Y0067038D03*
X0257367Y0067038D03*
X0262367Y0057038D03*
X0252367Y0057038D03*
X0272367Y0057038D03*
X0282367Y0057038D03*
X0212367Y0067038D03*
X0202367Y0067038D03*
X0192367Y0067038D03*
X0182367Y0067038D03*
X0187367Y0057038D03*
X0197367Y0057038D03*
X0207367Y0057038D03*
X0177367Y0057038D03*
X0137367Y0067038D03*
X0127367Y0067038D03*
X0117367Y0067038D03*
X0107367Y0067038D03*
X0112367Y0057038D03*
X0122367Y0057038D03*
X0132367Y0057038D03*
X0102367Y0057038D03*
X0062367Y0067038D03*
X0052367Y0067038D03*
X0042367Y0067038D03*
X0032367Y0067038D03*
X0037367Y0057038D03*
X0047367Y0057038D03*
X0057367Y0057038D03*
X0027367Y0057038D03*
D15*
X0236867Y0282038D02*
X0242867Y0282038D01*
X0251867Y0282038D02*
X0257867Y0282038D01*
X0266867Y0282038D02*
X0272867Y0282038D01*
X0281867Y0282038D02*
X0287867Y0282038D01*
X0296867Y0282038D02*
X0302867Y0282038D01*
X0311867Y0282038D02*
X0317867Y0282038D01*
X0317867Y0292038D02*
X0311867Y0292038D01*
X0302867Y0292038D02*
X0296867Y0292038D01*
X0287867Y0292038D02*
X0281867Y0292038D01*
X0272867Y0292038D02*
X0266867Y0292038D01*
X0257867Y0292038D02*
X0251867Y0292038D01*
X0242867Y0292038D02*
X0236867Y0292038D01*
X0236867Y0302038D02*
X0242867Y0302038D01*
X0251867Y0302038D02*
X0257867Y0302038D01*
X0266867Y0302038D02*
X0272867Y0302038D01*
X0281867Y0302038D02*
X0287867Y0302038D01*
X0296867Y0302038D02*
X0302867Y0302038D01*
X0311867Y0302038D02*
X0317867Y0302038D01*
X0317867Y0142038D02*
X0311867Y0142038D01*
X0311867Y0132038D02*
X0317867Y0132038D01*
X0317867Y0122038D02*
X0311867Y0122038D01*
X0311867Y0112038D02*
X0317867Y0112038D01*
X0317867Y0102038D02*
X0311867Y0102038D01*
X0311867Y0092038D02*
X0317867Y0092038D01*
X0368367Y0101038D02*
X0374367Y0101038D01*
X0374367Y0111038D02*
X0368367Y0111038D01*
X0368367Y0121038D02*
X0374367Y0121038D01*
D16*
X0299867Y0192038D03*
X0299867Y0217038D03*
D17*
X0299867Y0227038D03*
X0299867Y0182038D03*
D18*
X0025367Y0177038D03*
X0024367Y0187038D03*
X0015367Y0187038D03*
X0014367Y0197038D03*
X0015367Y0207038D03*
X0024367Y0207038D03*
X0025367Y0217038D03*
X0014367Y0217038D03*
X0015367Y0227038D03*
X0014867Y0237038D03*
X0014867Y0247038D03*
X0025367Y0197038D03*
X0014367Y0177038D03*
X0015367Y0167038D03*
X0024367Y0167038D03*
X0025367Y0157038D03*
X0024367Y0147038D03*
X0015367Y0147038D03*
X0014367Y0157038D03*
X0014367Y0137038D03*
X0015367Y0127038D03*
X0024367Y0127038D03*
X0025367Y0137038D03*
X0025367Y0117038D03*
X0024367Y0107038D03*
X0015367Y0107038D03*
X0014367Y0117038D03*
X0014367Y0097038D03*
X0015367Y0087038D03*
X0024367Y0087038D03*
X0025367Y0097038D03*
X0014367Y0077038D03*
D19*
X0176367Y0149538D02*
X0176367Y0194038D01*
X0176867Y0194538D01*
X0180867Y0201538D02*
X0180867Y0147538D01*
X0179867Y0146538D01*
X0189867Y0102038D02*
X0202367Y0089538D01*
X0202367Y0067038D01*
X0207367Y0057038D02*
X0207367Y0094538D01*
X0199867Y0102038D01*
X0236367Y0167038D02*
X0248867Y0167038D01*
X0248867Y0177538D01*
X0266367Y0176038D02*
X0266367Y0186538D01*
X0269867Y0192538D01*
X0269867Y0197038D01*
X0287367Y0199538D02*
X0287367Y0172538D01*
X0287867Y0172038D01*
X0287367Y0199538D02*
X0269867Y0217038D01*
X0223367Y0278038D02*
X0224867Y0279538D01*
X0224867Y0281538D01*
X0235367Y0292038D01*
X0239867Y0292038D01*
X0223367Y0278038D02*
X0187367Y0278038D01*
X0187367Y0262038D01*
X0181367Y0242538D02*
X0180867Y0242538D01*
X0180867Y0201538D01*
X0314867Y0092038D02*
X0315867Y0092538D01*
X0315367Y0092038D02*
X0314867Y0092038D01*
D20*
X0290867Y0083538D03*
X0282367Y0063538D03*
X0244867Y0092038D03*
X0218867Y0083538D03*
X0154867Y0074038D03*
X0150367Y0073538D03*
X0137367Y0083538D03*
X0083867Y0102038D03*
X0083867Y0112038D03*
X0078367Y0083538D03*
X0176367Y0149538D03*
X0179867Y0146538D03*
X0236367Y0167038D03*
X0248867Y0177538D03*
X0266367Y0176038D03*
X0266367Y0186538D03*
X0273367Y0202038D03*
X0193867Y0223038D03*
X0189367Y0211538D03*
X0180867Y0201538D03*
X0176867Y0194538D03*
X0164867Y0215038D03*
X0152367Y0212038D03*
X0149367Y0209038D03*
X0137867Y0212038D03*
X0137867Y0229038D03*
X0151867Y0254538D03*
X0181367Y0242538D03*
X0184867Y0249538D03*
X0118367Y0197538D03*
D21*
X0184867Y0249538D02*
X0189367Y0245038D01*
X0189367Y0211538D01*
X0182367Y0272038D02*
X0181867Y0272538D01*
X0181867Y0281038D01*
X0186867Y0286038D01*
X0223367Y0286038D01*
X0231367Y0294038D01*
X0231367Y0298538D01*
X0234867Y0302038D01*
X0239867Y0302038D01*
X0314867Y0302038D02*
X0319867Y0302038D01*
X0324867Y0297038D01*
X0324867Y0287038D01*
X0339867Y0272038D01*
X0062367Y0067538D02*
X0062367Y0067038D01*
D22*
X0066367Y0067038D01*
X0070867Y0062538D01*
X0070867Y0052538D01*
X0064867Y0046538D01*
X0021867Y0046538D01*
X0017367Y0051038D01*
X0017367Y0066038D01*
X0034867Y0083538D01*
X0034867Y0254538D01*
X0027367Y0262038D01*
X0027367Y0263538D01*
X0022867Y0268038D01*
X0022867Y0278538D01*
X0027367Y0283038D01*
X0097367Y0283038D01*
X0097867Y0282538D01*
X0097867Y0281038D01*
X0101867Y0285038D01*
X0160367Y0285038D01*
X0172867Y0272538D01*
X0172867Y0266538D01*
X0177367Y0262038D01*
X0102367Y0262038D02*
X0097867Y0266538D01*
X0097867Y0281038D01*
X0299867Y0217038D02*
X0299867Y0192038D01*
X0299867Y0217038D02*
X0311367Y0217038D01*
X0316867Y0222538D01*
X0316867Y0235538D01*
X0333367Y0252038D01*
X0339867Y0252038D01*
X0339867Y0272038D01*
X0339867Y0232038D02*
X0334867Y0227038D01*
X0334867Y0189038D01*
X0344367Y0179538D01*
X0341367Y0179538D01*
X0336867Y0175038D01*
X0336867Y0155038D01*
X0342367Y0149538D01*
X0344867Y0149538D01*
X0345367Y0149038D01*
X0345367Y0115538D01*
X0359867Y0101038D01*
X0371367Y0101038D01*
X0377367Y0111038D02*
X0382367Y0106038D01*
X0382367Y0087038D01*
X0362367Y0067038D01*
X0314867Y0059538D02*
X0314867Y0092038D01*
X0290867Y0083538D02*
X0290867Y0070538D01*
X0287367Y0067038D01*
X0282367Y0057038D02*
X0312367Y0057038D01*
X0314867Y0059538D01*
X0369367Y0111038D02*
X0377367Y0111038D01*
X0344867Y0179538D02*
X0344367Y0179538D01*
X0244867Y0092038D02*
X0244867Y0077038D01*
X0224867Y0057038D01*
X0207367Y0057038D01*
X0212367Y0067038D02*
X0218867Y0073538D01*
X0218867Y0083538D01*
X0137367Y0083538D02*
X0137367Y0067038D01*
X0078367Y0083538D02*
X0062367Y0067538D01*
D23*
X0287867Y0172038D03*
D24*
X0083867Y0112038D02*
X0083867Y0102038D01*
X0082867Y0101038D01*
X0082867Y0097538D01*
X0052367Y0067038D01*
D25*
X0042367Y0067038D02*
X0042367Y0257038D01*
X0047367Y0262038D01*
X0062367Y0272038D02*
X0062367Y0088538D01*
X0061867Y0088038D01*
X0088367Y0091038D02*
X0095867Y0083538D01*
X0095867Y0054038D01*
X0099367Y0050538D01*
X0327367Y0050538D01*
X0327367Y0057038D01*
X0252367Y0057038D02*
X0252367Y0052538D01*
X0100367Y0052538D01*
X0097867Y0055038D01*
X0097867Y0102038D01*
X0088367Y0111538D01*
X0102367Y0121038D02*
X0102367Y0057038D01*
X0141367Y0101538D02*
X0141367Y0268038D01*
X0137367Y0272038D01*
X0125367Y0279038D02*
X0156367Y0279038D01*
X0159867Y0260538D02*
X0148867Y0260538D01*
X0145367Y0257038D01*
X0145367Y0105538D01*
X0144367Y0104538D01*
X0159867Y0112038D02*
X0159867Y0155038D01*
X0171867Y0167038D01*
X0194867Y0164038D02*
X0197867Y0167038D01*
X0197867Y0232538D01*
X0198867Y0232538D01*
X0197867Y0232538D02*
X0197867Y0240038D01*
X0239867Y0282038D01*
X0247367Y0284038D02*
X0249867Y0286538D01*
X0269867Y0286538D01*
X0269867Y0282038D01*
X0277367Y0284038D02*
X0279867Y0286538D01*
X0299867Y0286538D01*
X0299867Y0282038D01*
X0284867Y0282038D02*
X0251367Y0248538D01*
X0251367Y0184538D01*
X0241867Y0175038D01*
X0238867Y0178038D02*
X0238867Y0185038D01*
X0232367Y0191538D01*
X0224867Y0194538D02*
X0235867Y0183538D01*
X0235867Y0172038D01*
X0230867Y0170538D02*
X0219867Y0181538D01*
X0219867Y0239538D01*
X0211367Y0248038D01*
X0223867Y0256538D02*
X0223867Y0239038D01*
X0221867Y0237038D01*
X0221867Y0188538D01*
X0232367Y0178038D01*
X0241867Y0181038D02*
X0247867Y0187038D01*
X0247867Y0250538D01*
X0277367Y0280038D01*
X0277367Y0284038D01*
X0254867Y0282038D02*
X0245867Y0273038D01*
X0245867Y0221538D01*
X0224867Y0200538D01*
X0216867Y0209538D02*
X0216867Y0143538D01*
X0213367Y0140038D01*
X0216367Y0137038D02*
X0219367Y0140038D01*
X0219367Y0151038D01*
X0230867Y0162538D01*
X0245367Y0162538D01*
X0245867Y0162038D01*
X0255367Y0162038D01*
X0255367Y0199038D01*
X0258867Y0202538D01*
X0269867Y0202538D01*
X0269867Y0207038D01*
X0259867Y0197038D02*
X0261867Y0195038D01*
X0261867Y0179038D01*
X0261867Y0143538D01*
X0226367Y0108038D01*
X0226367Y0107538D01*
X0184367Y0107538D01*
X0184367Y0128538D01*
X0186867Y0131038D01*
X0184367Y0133038D02*
X0177367Y0126038D01*
X0177367Y0125538D01*
X0175867Y0128538D02*
X0173367Y0126038D01*
X0175867Y0128538D02*
X0175867Y0129538D01*
X0181367Y0135038D01*
X0184367Y0133038D02*
X0184367Y0137038D01*
X0179367Y0142038D01*
X0169867Y0137538D02*
X0162867Y0130538D01*
X0162867Y0126038D01*
X0165867Y0129038D02*
X0175367Y0119538D01*
X0175367Y0059038D01*
X0177367Y0057038D01*
X0179867Y0102038D02*
X0184367Y0106538D01*
X0184367Y0107538D01*
X0189867Y0112038D02*
X0189867Y0196038D01*
X0189367Y0196538D01*
X0201867Y0196538D02*
X0203867Y0194538D01*
X0203867Y0124038D01*
X0199867Y0112038D02*
X0199867Y0174038D01*
X0200867Y0175038D01*
X0210367Y0169538D02*
X0213867Y0173038D01*
X0213867Y0219538D01*
X0207367Y0211538D02*
X0207367Y0136538D01*
X0208367Y0135538D01*
X0221367Y0148538D02*
X0221367Y0117038D01*
X0221367Y0148538D02*
X0232367Y0159538D01*
X0117867Y0237538D02*
X0089867Y0209538D01*
X0086867Y0206038D02*
X0086367Y0204538D01*
X0086867Y0206038D02*
X0086867Y0277038D01*
X0117867Y0266038D02*
X0122867Y0271038D01*
X0122867Y0276538D01*
X0125367Y0279038D01*
X0117867Y0266038D02*
X0117867Y0237538D01*
X0159867Y0260538D02*
X0166367Y0254038D01*
X0223867Y0256538D02*
X0247367Y0280038D01*
X0247367Y0284038D01*
X0107367Y0126038D02*
X0102367Y0121038D01*
D26*
X0107367Y0126038D03*
X0088367Y0111538D03*
X0088367Y0091038D03*
X0061867Y0088038D03*
X0141367Y0101538D03*
X0144367Y0104538D03*
X0162867Y0126038D03*
X0165867Y0129038D03*
X0173367Y0126038D03*
X0177367Y0125538D03*
X0186867Y0131038D03*
X0181367Y0135038D03*
X0179367Y0142038D03*
X0169867Y0137538D03*
X0194867Y0164038D03*
X0200867Y0175038D03*
X0210367Y0169538D03*
X0230867Y0170538D03*
X0235867Y0172038D03*
X0241867Y0175038D03*
X0238867Y0178038D03*
X0241867Y0181038D03*
X0232367Y0178038D03*
X0232367Y0191538D03*
X0224867Y0194538D03*
X0224867Y0200538D03*
X0216867Y0209538D03*
X0207367Y0211538D03*
X0213867Y0219538D03*
X0198867Y0232538D03*
X0211367Y0248038D03*
X0166367Y0254038D03*
X0156367Y0279038D03*
X0086867Y0277038D03*
X0089867Y0209538D03*
X0086367Y0204538D03*
X0171867Y0167038D03*
X0189367Y0196538D03*
X0201867Y0196538D03*
X0232367Y0159538D03*
X0213367Y0140038D03*
X0216367Y0137038D03*
X0208367Y0135538D03*
X0203867Y0124038D03*
X0221367Y0117038D03*
X0261867Y0143538D03*
X0261867Y0179038D03*
D27*
X0282367Y0193038D02*
X0282367Y0063538D01*
X0154867Y0074038D02*
X0154867Y0209538D01*
X0152367Y0212038D01*
X0149367Y0209038D02*
X0150367Y0208038D01*
X0150367Y0073538D01*
X0112367Y0057038D02*
X0112367Y0186538D01*
X0137867Y0212038D01*
X0137867Y0229038D02*
X0127367Y0239538D01*
X0127367Y0272038D01*
X0151867Y0254538D02*
X0151867Y0228038D01*
X0164867Y0215038D01*
X0193867Y0223038D02*
X0195367Y0224538D01*
X0195367Y0253538D01*
X0202367Y0260538D01*
X0202367Y0272038D01*
X0273367Y0202038D02*
X0282367Y0193038D01*
X0118367Y0197538D02*
X0065367Y0144538D01*
X0065367Y0086538D01*
X0047367Y0068538D01*
X0047367Y0065538D01*
X0038867Y0057038D01*
X0037367Y0057038D01*
M02*
